<svg xmlns="http://www.w3.org/2000/svg" xmlns:xlink="http://www.w3.org/1999/xlink" width="90" height="90" viewBox="0 0 90 90">
  <defs>
    <clipPath id="clip-Artboard_3">
      <rect width="90" height="90"/>
    </clipPath>
  </defs>
  <g id="Artboard_3" data-name="Artboard – 3" clip-path="url(#clip-Artboard_3)">
    <g id="location" transform="translate(-1.25 -1.24)">
      <path id="Path_150" data-name="Path 150" d="M62.668,17.279A10.259,10.259,0,1,0,52.409,27.538,10.272,10.272,0,0,0,62.668,17.279Zm-18.357,0a8.1,8.1,0,1,1,8.1,8.1A8.1,8.1,0,0,1,44.311,17.279Z" transform="translate(16.522 2.548)" fill="#0473c0"/>
      <path id="Path_151" data-name="Path 151" d="M54.953,52.924a1.086,1.086,0,0,0,.85-.418c.72-.922,17.723-22.766,17.723-32.693a18.573,18.573,0,1,0-37.146.014c0,9.928,17,31.757,17.723,32.693a1.072,1.072,0,0,0,.85.4Zm0-49.508A16.431,16.431,0,0,1,71.364,19.827c0,7.982-12.939,25.633-16.412,30.244-3.473-4.6-16.412-22.247-16.412-30.244A16.431,16.431,0,0,1,54.953,3.416Z" transform="translate(13.978)" fill="#2e008b"/>
      <path id="Path_152" data-name="Path 152" d="M11.611,30.446h7.2A1.089,1.089,0,0,0,19.9,29.365v-7.2a1.089,1.089,0,0,0-1.081-1.081h-7.2a1.089,1.089,0,0,0-1.081,1.081v7.2a1.079,1.079,0,0,0,1.081,1.081Zm1.081-7.2h5.043v5.043H12.691Z" transform="translate(4.091 8.221)" fill="#2e008b"/>
      <path id="Path_153" data-name="Path 153" d="M20.561,30.446h7.2a1.089,1.089,0,0,0,1.081-1.081v-7.2a1.089,1.089,0,0,0-1.081-1.081h-7.2a1.089,1.089,0,0,0-1.081,1.081v7.2A1.079,1.079,0,0,0,20.561,30.446Zm1.081-7.2h5.043v5.043H21.641Z" transform="translate(7.554 8.221)" fill="#2e008b"/>
      <path id="Path_154" data-name="Path 154" d="M19.48,39.365a1.089,1.089,0,0,0,1.081,1.081h7.2a1.089,1.089,0,0,0,1.081-1.081v-7.2a1.089,1.089,0,0,0-1.081-1.081h-7.2a1.089,1.089,0,0,0-1.081,1.081Zm2.161-6.124h5.043v5.043H21.641Z" transform="translate(7.554 12.365)" fill="#2e008b"/>
      <path id="Path_155" data-name="Path 155" d="M19.48,49.365a1.089,1.089,0,0,0,1.081,1.081h7.2a1.089,1.089,0,0,0,1.081-1.081v-7.2a1.089,1.089,0,0,0-1.081-1.081h-7.2a1.089,1.089,0,0,0-1.081,1.081Zm2.161-6.124h5.043v5.043H21.641Z" transform="translate(7.554 16.509)" fill="#2e008b"/>
      <path id="Path_156" data-name="Path 156" d="M19.48,59.365a1.089,1.089,0,0,0,1.081,1.081h7.2a1.089,1.089,0,0,0,1.081-1.081v-7.2a1.089,1.089,0,0,0-1.081-1.081h-7.2a1.089,1.089,0,0,0-1.081,1.081Zm2.161-6.124h5.043v5.043H21.641Z" transform="translate(7.554 20.463)" fill="#2e008b"/>
      <path id="Path_157" data-name="Path 157" d="M10.53,39.365a1.089,1.089,0,0,0,1.081,1.081h7.2A1.089,1.089,0,0,0,19.9,39.365v-7.2a1.089,1.089,0,0,0-1.081-1.081h-7.2a1.089,1.089,0,0,0-1.081,1.081Zm2.161-6.124h5.043v5.043H12.691Z" transform="translate(4.091 12.365)" fill="#2e008b"/>
      <path id="Path_158" data-name="Path 158" d="M10.53,49.365a1.089,1.089,0,0,0,1.081,1.081h7.2A1.089,1.089,0,0,0,19.9,49.365v-7.2a1.089,1.089,0,0,0-1.081-1.081h-7.2a1.089,1.089,0,0,0-1.081,1.081Zm2.161-6.124h5.043v5.043H12.691Z" transform="translate(4.091 16.509)" fill="#2e008b"/>
      <path id="Path_159" data-name="Path 159" d="M10.53,59.365a1.089,1.089,0,0,0,1.081,1.081h7.2A1.089,1.089,0,0,0,19.9,59.365v-7.2a1.089,1.089,0,0,0-1.081-1.081h-7.2a1.089,1.089,0,0,0-1.081,1.081Zm2.161-6.124h5.043v5.043H12.691Z" transform="translate(4.091 20.463)" fill="#2e008b"/>
      <path id="Path_160" data-name="Path 160" d="M34.161,50.471h6.095a1.081,1.081,0,1,0,0-2.161H34.161a1.081,1.081,0,1,0,0,2.161Z" transform="translate(13.201 19.606)" fill="#2e008b"/>
      <path id="Path_161" data-name="Path 161" d="M34.161,54h6.095a1.081,1.081,0,1,0,0-2.161H34.161a1.081,1.081,0,1,0,0,2.161Z" transform="translate(13.201 21.076)" fill="#2e008b"/>
      <path id="Path_162" data-name="Path 162" d="M54.161,50.471h6.095a1.081,1.081,0,1,0,0-2.161H54.161a1.081,1.081,0,0,0,0,2.161Z" transform="translate(21.341 19.606)" fill="#2e008b"/>
      <path id="Path_163" data-name="Path 163" d="M54.161,54h6.095a1.081,1.081,0,1,0,0-2.161H54.161a1.081,1.081,0,0,0,0,2.161Z" transform="translate(21.341 21.076)" fill="#2e008b"/>
      <path id="Path_164" data-name="Path 164" d="M90.173,89.11H87.566v-24.1h2.211a1.071,1.071,0,0,0,1.063-1.063V55.808a1.071,1.071,0,0,0-1.063-1.063H84.831a1.063,1.063,0,0,0,0,2.126h3.883V62.88H40.447V56.871H80.438a1.063,1.063,0,1,0,0-2.126H46.215V20.239a1.071,1.071,0,0,0-1.063-1.063H38.335V12.119a1.071,1.071,0,0,0-1.063-1.063H26.4V2.313a1.063,1.063,0,0,0-2.126,0v8.743H18.992a1.063,1.063,0,1,0,0,2.126H36.21V19.19H14.472V13.182H14.8a1.063,1.063,0,1,0,0-2.126H13.409a1.071,1.071,0,0,0-1.063,1.063V19.19h-6.8a1.071,1.071,0,0,0-1.063,1.063v5.13a1.063,1.063,0,0,0,2.126,0V21.3H44.089V54.745h-4.7a1.071,1.071,0,0,0-1.063,1.063v8.134a1.071,1.071,0,0,0,1.063,1.063h2.211V82.024a1.063,1.063,0,0,0,2.126,0V65.005H85.44v24.1H72.828V78.127a1.071,1.071,0,0,0-1.063-1.063H57.4a1.071,1.071,0,0,0-1.063,1.063V89.11h-12.6V85.936a1.063,1.063,0,0,0-2.126,0V89.11h-35V29.649a1.063,1.063,0,0,0-2.126,0V89.11H2.313a1.063,1.063,0,1,0,0,2.126h87.86a1.063,1.063,0,1,0,0-2.126Zm-26.3,0H58.444V79.19h5.427Zm6.845,0h-4.7V79.19h4.7Z" transform="translate(0 0.004)" fill="#2e008b"/>
    </g>
  </g>
</svg>
