<svg xmlns="http://www.w3.org/2000/svg" width="47.18" height="47.205" viewBox="0 0 47.18 47.205">
  <g id="sugar-cubes" transform="translate(-0.136)">
    <g id="Group_5310" data-name="Group 5310" transform="translate(0.136 0)">
      <path id="Path_27958" data-name="Path 27958" d="M47.316,26.072a.811.811,0,0,0-.412-.706h0a.916.916,0,0,0-.15-.08l-10.77-4.813V5.987c0-.007,0-.014,0-.021s0,0,0-.007,0-.009,0-.014,0-.006,0-.008,0-.012,0-.018V5.9a.918.918,0,0,0-.2-.49l0-.006L35.768,5.4l-.007-.008-.005-.006-.013-.014,0,0-.012-.013,0,0-.013-.014h0L35.7,5.32h0l-.014-.013,0,0-.013-.012,0,0-.015-.013,0,0-.01-.008-.007-.006-.008-.006a.92.92,0,0,0-.2-.116L24.1.08a.922.922,0,0,0-.752,0L12.035,5.137a.922.922,0,0,0-.2.116l-.008.006-.007.006-.01.008,0,0-.015.013,0,0-.013.012,0,0-.014.013h0l-.015.015h0l-.013.014,0,0-.012.013,0,0-.013.014-.005.006-.007.008-.007.008,0,.006a.917.917,0,0,0-.2.49v.019c0,.006,0,.012,0,.018s0,.006,0,.008v.014s0,0,0,.007,0,.014,0,.021V20.471L.7,25.284h0a.917.917,0,0,0-.563.845V41.216a.922.922,0,0,0,.546.842l11.336,5.066.005,0a.9.9,0,0,0,.735,0l.01,0,10.958-4.9,10.958,4.9.037.014a.957.957,0,0,0,.715-.014h0l11.334-5.065a.922.922,0,0,0,.546-.842V26.072ZM35.06,30.189l-9.074-4.055,9.074-4.055,9.074,4.055ZM23.726,14.711a.922.922,0,0,0,.922-.922V11.65l9.49-4.241V20.471l-9.49,4.241V22.125a.922.922,0,1,0-1.844,0v2.587l-9.49-4.241V7.409L22.8,11.65v2.139a.922.922,0,0,0,.922.922Zm0-12.779L32.8,5.987l-9.075,4.055L14.652,5.987ZM12.392,22.079l9.075,4.055-9.075,4.055L3.318,26.134ZM1.98,27.556,11.5,31.808a.924.924,0,0,0-.025.214V44.859L1.98,40.618Zm11.309,4.252L22.8,27.556V40.618l-9.49,4.241V32.022a.925.925,0,0,0-.025-.214Zm11.359-4.252,9.515,4.252a.924.924,0,0,0-.025.214V44.859l-9.49-4.241Zm11.334,17.3V32.022a.923.923,0,0,0-.025-.214l9.515-4.252V40.618Z" transform="translate(-0.136 0)" fill="#fff"/>
      <g id="Group_5309" data-name="Group 5309" transform="translate(22.669 17.021)">
        <path id="Path_27959" data-name="Path 27959" d="M246.934,186.453a.922.922,0,1,1,.9-.727A.931.931,0,0,1,246.934,186.453Z" transform="translate(-246.013 -184.612)" fill="#fff"/>
      </g>
    </g>
  </g>
</svg>
