<svg xmlns="http://www.w3.org/2000/svg" width="57.33" height="38.222" viewBox="0 0 57.33 38.222">
  <g id="boat" transform="translate(0 -85.33)">
    <g id="Group_5302" data-name="Group 5302" transform="translate(0 85.33)">
      <g id="Group_5301" data-name="Group 5301" transform="translate(0 0)">
        <path id="Path_27953" data-name="Path 27953" d="M56.372,112.083a13.335,13.335,0,0,0-7.39,2.029c-.419.231-.833.46-1.268.669l9.158-11.011a1.911,1.911,0,0,0-1.455-3.153H47.128l-10.07-7.324-.487-.974a5.7,5.7,0,0,0-5.127-3.168H21.61l-.955-1.911H25.8a.955.955,0,0,0,0-1.911H15.287a.955.955,0,1,0,0,1.911h3.231l.955,1.911H15.287a2.866,2.866,0,1,0,0,5.733h1.32l-2.866,5.733H12.9a1.919,1.919,0,0,0-1.529.764l-2.293,3.057H7.433a.955.955,0,0,0-.8.439l-4.647,7.24c-.33-.019-.662-.036-1.026-.036a.955.955,0,1,0,0,1.911,11.555,11.555,0,0,1,6.465,1.792,13.326,13.326,0,0,0,7.389,2.029,12.8,12.8,0,0,0,5.917-1.258l.013-.007c.509-.246.985-.506,1.455-.764a11.551,11.551,0,0,1,6.461-1.792,11.56,11.56,0,0,1,6.467,1.792,13.337,13.337,0,0,0,7.394,2.029,13.335,13.335,0,0,0,7.39-2.029,11.562,11.562,0,0,1,6.464-1.792.955.955,0,0,0,0-1.911ZM36,94.884,38.624,96.8H27.708a.955.955,0,0,1-.955-.955v-.955H36ZM15.287,92.974a.955.955,0,0,1,0-1.911H31.444a3.792,3.792,0,0,1,3.3,1.911H15.287Zm3.457,1.911h6.1v.955a2.866,2.866,0,0,0,2.866,2.866H41.252l2.628,1.911h-28ZM12.9,102.528H32.485v.955a.955.955,0,0,1-.955.955H11.465ZM42.518,115.9a11.56,11.56,0,0,1-6.471-1.792,13.336,13.336,0,0,0-7.39-2.029,13.321,13.321,0,0,0-7.386,2.029A11.546,11.546,0,0,1,14.81,115.9a11.555,11.555,0,0,1-6.466-1.792,14.427,14.427,0,0,0-4.264-1.72l3.875-6.042H31.53a2.866,2.866,0,0,0,2.866-2.866v-.955h2.866v2.866a.955.955,0,1,0,1.911,0v-2.866h1.911v2.866a.955.955,0,1,0,1.911,0v-2.866h1.911v2.866a.955.955,0,1,0,1.911,0v-2.861h8.59L44.4,115.782A14.228,14.228,0,0,1,42.518,115.9Z" transform="translate(0 -85.33)" fill="#fff"/>
        <path id="Path_27954" data-name="Path 27954" d="M56.373,375.433a13.336,13.336,0,0,0-7.39,2.029,11.562,11.562,0,0,1-6.464,1.793,11.56,11.56,0,0,1-6.467-1.793,13.337,13.337,0,0,0-7.394-2.029,13.321,13.321,0,0,0-7.386,2.029,11.546,11.546,0,0,1-6.461,1.793,11.555,11.555,0,0,1-6.466-1.793,13.326,13.326,0,0,0-7.388-2.029.955.955,0,0,0,0,1.911,11.555,11.555,0,0,1,6.465,1.792,13.326,13.326,0,0,0,7.389,2.029,13.313,13.313,0,0,0,7.386-2.03,11.551,11.551,0,0,1,6.461-1.792,11.56,11.56,0,0,1,6.467,1.792,13.336,13.336,0,0,0,7.394,2.029,13.335,13.335,0,0,0,7.39-2.029,11.562,11.562,0,0,1,6.464-1.792.955.955,0,1,0,0-1.911Z" transform="translate(-0.002 -342.948)" fill="#fff"/>
      </g>
    </g>
  </g>
</svg>
