<svg xmlns="http://www.w3.org/2000/svg" width="52.644" height="48.397" viewBox="0 0 52.644 48.397">
  <g id="buoy_1_" data-name="buoy (1)" transform="translate(0 -20.65)">
    <g id="Group_5304" data-name="Group 5304" transform="translate(25.294 45.327)">
      <g id="Group_5303" data-name="Group 5303" transform="translate(0 0)">
        <path id="Path_27955" data-name="Path 27955" d="M247.029,260.65a1.028,1.028,0,1,0,1.028,1.028A1.029,1.029,0,0,0,247.029,260.65Z" transform="translate(-246.001 -260.65)" fill="#fff"/>
      </g>
    </g>
    <g id="Group_5306" data-name="Group 5306" transform="translate(0 20.65)">
      <g id="Group_5305" data-name="Group 5305" transform="translate(0 0)">
        <path id="Path_27956" data-name="Path 27956" d="M52.186,60.922a1.028,1.028,0,0,0-1.426.285,1.75,1.75,0,0,1-2.71,0,3.8,3.8,0,0,0-6.132,0,1.443,1.443,0,0,1-2.4,0,3.489,3.489,0,0,0-1.054-1.027,13.244,13.244,0,0,0,.885-2.593,3.084,3.084,0,0,0,0-6.014,13.369,13.369,0,0,0-10.24-10.066,3.083,3.083,0,0,0-1.758-4.231V34.741l13.712-4.9a1.028,1.028,0,0,0,0-1.937L27.35,23.01V21.678a1.028,1.028,0,1,0-2.056,0v15.6a3.083,3.083,0,0,0-1.758,4.231A13.371,13.371,0,0,0,13.3,51.573a3.084,3.084,0,0,0,0,6.014,13.3,13.3,0,0,0,1.152,3.136,3.5,3.5,0,0,0-5.434.484,1.6,1.6,0,0,1-1.355.642,1.6,1.6,0,0,1-1.355-.642,3.642,3.642,0,0,0-3.066-1.558A3.641,3.641,0,0,0,.173,61.208a1.028,1.028,0,0,0,1.711,1.14,1.6,1.6,0,0,1,1.355-.642,1.6,1.6,0,0,1,1.355.642A3.642,3.642,0,0,0,7.66,63.906a3.642,3.642,0,0,0,3.066-1.558,1.443,1.443,0,0,1,2.4,0,3.5,3.5,0,0,0,5.824,0,1.444,1.444,0,0,1,2.4,0,3.5,3.5,0,0,0,5.824,0,1.444,1.444,0,0,1,2.4,0,3.5,3.5,0,0,0,5.824,0,1.444,1.444,0,0,1,2.4,0,3.5,3.5,0,0,0,5.824,0,1.75,1.75,0,0,1,2.71,0,3.8,3.8,0,0,0,6.132,0A1.028,1.028,0,0,0,52.186,60.922ZM27.35,25.194l10.31,3.682L27.35,32.557ZM26.322,39.158a1.028,1.028,0,1,1-1.028,1.028A1.029,1.029,0,0,1,26.322,39.158Zm0,4.113A11.266,11.266,0,0,1,37.205,51.5H35.051A9.25,9.25,0,0,0,30.8,46.473a1.028,1.028,0,0,0-.992,1.8A7.182,7.182,0,0,1,32.83,51.5H15.439A11.266,11.266,0,0,1,26.322,43.27ZM36.431,59.655a3.5,3.5,0,0,0-2.739,1.553,1.444,1.444,0,0,1-2.4,0,3.5,3.5,0,0,0-5.824,0,1.444,1.444,0,0,1-2.4,0,3.5,3.5,0,0,0-5.824,0c-.013.02-.027.038-.041.057a11.326,11.326,0,0,1-1.761-3.609H37.2A11.3,11.3,0,0,1,36.431,59.655ZM13.984,55.609a1.028,1.028,0,1,1,0-2.056H38.66a1.028,1.028,0,0,1,0,2.056Z" transform="translate(0 -20.65)" fill="#fff"/>
      </g>
    </g>
    <g id="Group_5308" data-name="Group 5308" transform="translate(0 64.79)">
      <g id="Group_5307" data-name="Group 5307">
        <path id="Path_27957" data-name="Path 27957" d="M52.186,451.221a1.028,1.028,0,0,0-1.426.285,1.75,1.75,0,0,1-2.71,0,3.8,3.8,0,0,0-6.132,0,1.444,1.444,0,0,1-2.4,0,3.5,3.5,0,0,0-5.824,0,1.444,1.444,0,0,1-2.4,0,3.5,3.5,0,0,0-5.824,0,1.444,1.444,0,0,1-2.4,0,3.5,3.5,0,0,0-5.824,0,1.444,1.444,0,0,1-2.4,0,3.5,3.5,0,0,0-5.824,0,1.6,1.6,0,0,1-1.355.642,1.6,1.6,0,0,1-1.355-.642,3.642,3.642,0,0,0-3.066-1.558,3.642,3.642,0,0,0-3.066,1.558,1.028,1.028,0,1,0,1.711,1.14A1.6,1.6,0,0,1,3.239,452a1.6,1.6,0,0,1,1.355.642,3.642,3.642,0,0,0,3.066,1.558,3.642,3.642,0,0,0,3.066-1.558,1.444,1.444,0,0,1,2.4,0,3.5,3.5,0,0,0,5.824,0,1.444,1.444,0,0,1,2.4,0,3.5,3.5,0,0,0,5.824,0,1.444,1.444,0,0,1,2.4,0,3.5,3.5,0,0,0,5.824,0,1.444,1.444,0,0,1,2.4,0,3.5,3.5,0,0,0,5.824,0,1.75,1.75,0,0,1,2.71,0,3.8,3.8,0,0,0,6.132,0A1.028,1.028,0,0,0,52.186,451.221Z" transform="translate(0 -449.948)" fill="#fff"/>
      </g>
    </g>
  </g>
</svg>
