<svg xmlns="http://www.w3.org/2000/svg" width="20.06" height="16.535" viewBox="0 0 20.06 16.535">
  <g id="folder3" transform="translate(0 -44.975)">
    <g id="Group_943" data-name="Group 943" transform="translate(0 44.975)">
      <path id="Path_1346" data-name="Path 1346" d="M19.91,49.094a.588.588,0,0,0-.438-.2H17.179V46.852a.588.588,0,0,0-.588-.588H6.505v-.7a.588.588,0,0,0-.588-.588H.588A.588.588,0,0,0,0,45.563V60.919a.586.586,0,0,0,.587.591H18.207a.588.588,0,0,0,.584-.523L20.056,49.55A.588.588,0,0,0,19.91,49.094ZM1.175,46.15H5.33v.7a.588.588,0,0,0,.588.588H16V48.9H2.939a.588.588,0,0,0-.576.469L1.175,55.145Zm16.5,14.185H1.308L3.418,50.073h15.4Z" transform="translate(0 -44.975)" fill="#004ac9"/>
    </g>
  </g>
</svg>
