<svg xmlns="http://www.w3.org/2000/svg" width="19.454" height="18.754" viewBox="0 0 19.454 18.754">
  <g id="folder" transform="translate(0 -9.209)">
    <path id="Path_1339" data-name="Path 1339" d="M18.884,13.724H17.749V11.985a.57.57,0,0,0-.57-.57H9.428l-.88-1.878a.57.57,0,0,0-.516-.328H.57a.57.57,0,0,0-.57.57v15.3a.57.57,0,0,0,.57.57H2.28v1.748a.57.57,0,0,0,.57.57H18.884a.57.57,0,0,0,.57-.57v-13.1A.57.57,0,0,0,18.884,13.724ZM1.14,24.506V10.349H7.669l.88,1.878a.57.57,0,0,0,.516.328h7.544v1.169H2.85a.57.57,0,0,0-.57.57V24.506H1.14Zm17.174,2.318H3.42V14.864H18.314Z" fill="#004ac9"/>
    <path id="Path_1340" data-name="Path 1340" d="M172.568,378.906a.57.57,0,0,0-.57.57v.718h-7v-.718a.57.57,0,0,0-1.14,0v1.287a.57.57,0,0,0,.57.57h8.142a.57.57,0,0,0,.57-.57v-1.287A.57.57,0,0,0,172.568,378.906Z" transform="translate(-157.63 -355.65)" fill="#004ac9"/>
    <path id="Path_1341" data-name="Path 1341" d="M202.388,195.235a.57.57,0,0,0,.806,0l2.717-2.717a.57.57,0,0,0-.806-.806l-1.744,1.744V188.61a.57.57,0,0,0-1.14,0v4.846l-1.744-1.744a.57.57,0,0,0-.806.806Z" transform="translate(-191.924 -172.036)" fill="#004ac9"/>
  </g>
</svg>
