<svg xmlns="http://www.w3.org/2000/svg" width="59.264" height="74.074" viewBox="0 0 59.264 74.074">
  <g id="document" transform="translate(0.001 0)">
    <path id="Path_1325" data-name="Path 1325" d="M3.708,66.666h3.7v3.7a3.7,3.7,0,0,0,3.7,3.7H55.56a3.7,3.7,0,0,0,3.7-3.7V11.111a3.7,3.7,0,0,0-3.7-3.7h-3.7V3.7a3.7,3.7,0,0,0-3.7-3.7H13.585c-.026,0-.05.014-.076.015a1.254,1.254,0,0,0-.322.064,1.162,1.162,0,0,0-.112.041,1.2,1.2,0,0,0-.363.247L.366,12.712a1.235,1.235,0,0,0-.247.362c-.018.038-.027.077-.041.116a1.17,1.17,0,0,0-.063.317c0,.027-.016.051-.016.078V62.962a3.7,3.7,0,0,0,3.708,3.7ZM55.56,9.876a1.235,1.235,0,0,1,1.234,1.235V70.37A1.235,1.235,0,0,1,55.56,71.6H11.116A1.235,1.235,0,0,1,9.881,70.37v-3.7H48.153a3.7,3.7,0,0,0,3.7-3.7V9.876ZM49.387,3.7V62.962A1.235,1.235,0,0,1,48.153,64.2H3.708a1.235,1.235,0,0,1-1.234-1.235V14.814h8.642a3.7,3.7,0,0,0,3.7-3.7V2.469H48.153A1.235,1.235,0,0,1,49.387,3.7ZM12.35,4.215v6.9a1.234,1.234,0,0,1-1.234,1.234h-6.9Zm0,0" fill="#004ac9"/>
    <g id="Group_942" data-name="Group 942" transform="translate(7.412 20.987)">
      <path id="Path_1326" data-name="Path 1326" d="M52.469,145.066a1.235,1.235,0,0,0,0,2.469H87.036a1.235,1.235,0,1,0,0-2.469Zm0,0" transform="translate(-51.234 -145.066)" fill="#004ac9" fill-rule="evenodd"/>
      <path id="Path_1327" data-name="Path 1327" d="M87.036,315.734H52.468a1.235,1.235,0,0,0,0,2.469H87.036a1.235,1.235,0,1,0,0-2.469Zm0,0" transform="translate(-51.234 -291.043)" fill="#004ac9" fill-rule="evenodd"/>
      <path id="Path_1328" data-name="Path 1328" d="M254.907,187.734h-6.172a1.235,1.235,0,1,0,0,2.469h6.172a1.235,1.235,0,1,0,0-2.469Zm0,0" transform="translate(-219.105 -181.561)" fill="#004ac9" fill-rule="evenodd"/>
      <path id="Path_1329" data-name="Path 1329" d="M75.925,188.969a1.235,1.235,0,0,0-1.235-1.234H52.468a1.235,1.235,0,0,0,0,2.469H74.69A1.235,1.235,0,0,0,75.925,188.969Zm0,0" transform="translate(-51.234 -181.562)" fill="#004ac9" fill-rule="evenodd"/>
      <path id="Path_1330" data-name="Path 1330" d="M147.571,358.4h-1.235a1.235,1.235,0,0,0,0,2.469h1.235a1.235,1.235,0,0,0,0-2.469Zm0,0" transform="translate(-131.521 -327.534)" fill="#004ac9" fill-rule="evenodd"/>
      <path id="Path_1331" data-name="Path 1331" d="M59.877,358.4H52.469a1.235,1.235,0,0,0,0,2.469h7.408a1.235,1.235,0,0,0,0-2.469Zm0,0" transform="translate(-51.234 -327.534)" fill="#004ac9" fill-rule="evenodd"/>
      <path id="Path_1332" data-name="Path 1332" d="M52.469,232.868h6.173a1.235,1.235,0,1,0,0-2.469H52.469a1.235,1.235,0,0,0,0,2.469Zm0,0" transform="translate(-51.234 -218.053)" fill="#004ac9" fill-rule="evenodd"/>
      <path id="Path_1333" data-name="Path 1333" d="M160.023,230.4H137.8a1.235,1.235,0,1,0,0,2.469h22.222a1.235,1.235,0,1,0,0-2.469Zm0,0" transform="translate(-124.22 -218.053)" fill="#004ac9" fill-rule="evenodd"/>
      <path id="Path_1334" data-name="Path 1334" d="M52.469,275.536h3.7a1.235,1.235,0,1,0,0-2.469h-3.7a1.235,1.235,0,0,0,0,2.469Zm0,0" transform="translate(-51.234 -254.548)" fill="#004ac9" fill-rule="evenodd"/>
      <path id="Path_1335" data-name="Path 1335" d="M120.735,275.536h14.814a1.235,1.235,0,1,0,0-2.469H120.735a1.235,1.235,0,1,0,0,2.469Zm0,0" transform="translate(-109.623 -254.548)" fill="#004ac9" fill-rule="evenodd"/>
      <path id="Path_1336" data-name="Path 1336" d="M269.5,273.066h-3.7a1.235,1.235,0,1,0,0,2.469h3.7a1.235,1.235,0,1,0,0-2.469Zm0,0" transform="translate(-233.702 -254.548)" fill="#004ac9" fill-rule="evenodd"/>
    </g>
  </g>
</svg>
