<svg id="document3" xmlns="http://www.w3.org/2000/svg" width="32.71" height="39.252" viewBox="0 0 32.71 39.252">
  <g id="Group_949" data-name="Group 949" transform="translate(3.925 28.13)">
    <g id="Group_948" data-name="Group 948" transform="translate(0 0)">
      <path id="Path_1349" data-name="Path 1349" d="M137.963,344h-1.308a.654.654,0,1,0,0,1.308h1.308a.654.654,0,1,0,0-1.308Z" transform="translate(-136 -344)" fill="#004ac9"/>
    </g>
  </g>
  <g id="Group_951" data-name="Group 951" transform="translate(7.85 28.13)">
    <g id="Group_950" data-name="Group 950" transform="translate(0 0)">
      <path id="Path_1350" data-name="Path 1350" d="M200.355,344h-15.7a.654.654,0,1,0,0,1.308h15.7a.654.654,0,1,0,0-1.308Z" transform="translate(-184 -344)" fill="#004ac9"/>
    </g>
  </g>
  <g id="Group_953" data-name="Group 953" transform="translate(3.925 24.205)">
    <g id="Group_952" data-name="Group 952" transform="translate(0 0)">
      <path id="Path_1351" data-name="Path 1351" d="M137.963,296h-1.308a.654.654,0,0,0,0,1.308h1.308a.654.654,0,1,0,0-1.308Z" transform="translate(-136 -296)" fill="#004ac9"/>
    </g>
  </g>
  <g id="Group_955" data-name="Group 955" transform="translate(7.85 24.205)">
    <g id="Group_954" data-name="Group 954" transform="translate(0 0)">
      <path id="Path_1352" data-name="Path 1352" d="M200.355,296h-15.7a.654.654,0,1,0,0,1.308h15.7a.654.654,0,0,0,0-1.308Z" transform="translate(-184 -296)" fill="#004ac9"/>
    </g>
  </g>
  <g id="Group_957" data-name="Group 957" transform="translate(3.925 20.28)">
    <g id="Group_956" data-name="Group 956" transform="translate(0 0)">
      <path id="Path_1353" data-name="Path 1353" d="M137.963,248h-1.308a.654.654,0,1,0,0,1.308h1.308a.654.654,0,1,0,0-1.308Z" transform="translate(-136 -248)" fill="#004ac9"/>
    </g>
  </g>
  <g id="Group_959" data-name="Group 959" transform="translate(7.85 20.28)">
    <g id="Group_958" data-name="Group 958" transform="translate(0 0)">
      <path id="Path_1354" data-name="Path 1354" d="M200.355,248h-15.7a.654.654,0,1,0,0,1.308h15.7a.654.654,0,1,0,0-1.308Z" transform="translate(-184 -248)" fill="#004ac9"/>
    </g>
  </g>
  <g id="Group_961" data-name="Group 961" transform="translate(3.925 16.355)">
    <g id="Group_960" data-name="Group 960" transform="translate(0 0)">
      <path id="Path_1355" data-name="Path 1355" d="M137.963,200h-1.308a.654.654,0,1,0,0,1.308h1.308a.654.654,0,1,0,0-1.308Z" transform="translate(-136 -200)" fill="#004ac9"/>
    </g>
  </g>
  <g id="Group_963" data-name="Group 963" transform="translate(7.85 16.355)">
    <g id="Group_962" data-name="Group 962" transform="translate(0 0)">
      <path id="Path_1356" data-name="Path 1356" d="M200.355,200h-15.7a.654.654,0,1,0,0,1.308h15.7a.654.654,0,1,0,0-1.308Z" transform="translate(-184 -200)" fill="#004ac9"/>
    </g>
  </g>
  <g id="Group_965" data-name="Group 965" transform="translate(3.925 12.43)">
    <g id="Group_964" data-name="Group 964" transform="translate(0 0)">
      <path id="Path_1357" data-name="Path 1357" d="M137.963,152h-1.308a.654.654,0,0,0,0,1.308h1.308a.654.654,0,1,0,0-1.308Z" transform="translate(-136 -152)" fill="#004ac9"/>
    </g>
  </g>
  <g id="Group_967" data-name="Group 967" transform="translate(7.85 12.43)">
    <g id="Group_966" data-name="Group 966" transform="translate(0 0)">
      <path id="Path_1358" data-name="Path 1358" d="M200.355,152h-15.7a.654.654,0,1,0,0,1.308h15.7a.654.654,0,0,0,0-1.308Z" transform="translate(-184 -152)" fill="#004ac9"/>
    </g>
  </g>
  <g id="Group_969" data-name="Group 969" transform="translate(0)">
    <g id="Group_968" data-name="Group 968">
      <path id="Path_1359" data-name="Path 1359" d="M40.009,9.772a.618.618,0,0,1,.033-.168c.007-.021.012-.041.022-.061a.654.654,0,0,1,.131-.192L49.353.192a.654.654,0,0,1,.192-.131c.02-.009.041-.014.061-.022a.652.652,0,0,1,.169-.034c.011,0,.024-.005.038-.005H68.131a.654.654,0,0,1,.654.654V2.617h3.271a.654.654,0,0,1,.654.654V38.6a.654.654,0,0,1-.654.654H44.579a.654.654,0,0,1-.654-.654V35.327H40.654A.654.654,0,0,1,40,34.672V9.813C40,9.8,40.007,9.786,40.009,9.772Zm9.15-7.538L42.233,9.159h6.925Zm-3.925,35.71H71.4V3.925H68.785V34.672a.654.654,0,0,1-.654.654h-22.9Zm-3.925-3.925H67.476V1.308H50.467v8.5a.654.654,0,0,1-.654.654h-8.5Z" transform="translate(-40)" fill="#004ac9"/>
    </g>
  </g>
  <g id="Group_971" data-name="Group 971" transform="translate(19.626 5.888)">
    <g id="Group_970" data-name="Group 970" transform="translate(0)">
      <path id="Path_1360" data-name="Path 1360" d="M136.654,72h3.925a.654.654,0,0,1,.654.654v3.925a.654.654,0,0,1-.654.654h-3.925a.654.654,0,0,1-.654-.654V72.654A.654.654,0,0,1,136.654,72Zm.654,3.925h2.617V73.308h-2.617Z" transform="translate(-136 -72)" fill="#004ac9"/>
    </g>
  </g>
</svg>
