<svg id="Group_903" data-name="Group 903" xmlns="http://www.w3.org/2000/svg" width="48.508" height="48.51" viewBox="0 0 48.508 48.51">
  <path id="Path_1294" data-name="Path 1294" d="M47.271,35.779l-6.03-6.03a4.269,4.269,0,0,0-6.03,0L32.469,32.49a3.234,3.234,0,0,1-4.568,0L16.02,20.6a3.229,3.229,0,0,1,0-4.569l2.741-2.741a4.262,4.262,0,0,0,0-6.032l-6.029-6.01a4.268,4.268,0,0,0-6.026,0l-2.2,2.178a15.394,15.394,0,0,0,0,21.746L23.332,44a15.368,15.368,0,0,0,21.746,0l2.193-2.193A4.269,4.269,0,0,0,47.271,35.779ZM8.71,3.258a1.424,1.424,0,0,1,2.012,0l6.029,6.01a1.421,1.421,0,0,1,0,2.01l-1.005,1.005L7.71,4.249ZM25.343,41.993,6.517,23.157A12.5,12.5,0,0,1,5.733,6.292L13.745,14.3a6.067,6.067,0,0,0,.264,8.3L25.89,34.5h0a6.067,6.067,0,0,0,8.305.265l8.012,8.012A12.473,12.473,0,0,1,25.343,41.993ZM45.261,39.8,44.256,40.8l-8.041-8.041,1-1.005a1.423,1.423,0,0,1,2.01,0l6.03,6.03A1.423,1.423,0,0,1,45.261,39.8Z" transform="translate(-0.011 0)" fill="#fff"/>
</svg>
