<svg xmlns="http://www.w3.org/2000/svg" xmlns:xlink="http://www.w3.org/1999/xlink" width="90" height="90" viewBox="0 0 90 90">
  <defs>
    <clipPath id="clip-Artboard_3">
      <rect width="90" height="90"/>
    </clipPath>
  </defs>
  <g id="Artboard_3" data-name="Artboard – 3" clip-path="url(#clip-Artboard_3)">
    <g id="fax_1_" data-name="fax (1)" transform="translate(-0.684 0)">
      <g id="Group_9" data-name="Group 9" transform="translate(0.684 0)">
        <g id="Group_8" data-name="Group 8" transform="translate(0)">
          <path id="Path_165" data-name="Path 165" d="M261.177,58.573H235.1a1.37,1.37,0,1,0,0,2.74h26.08a1.37,1.37,0,0,0,0-2.74Z" transform="translate(-192.919 -48.104)" fill="#2e008b"/>
          <path id="Path_166" data-name="Path 166" d="M261.177,94.34H235.1a1.37,1.37,0,1,0,0,2.74h26.08a1.37,1.37,0,0,0,0-2.74Z" transform="translate(-192.919 -77.72)" fill="#2e008b"/>
          <path id="Path_167" data-name="Path 167" d="M84.788,24.348h-.179V21.113A3.91,3.91,0,0,0,80.7,17.207H79.419V14.832a1.351,1.351,0,0,0-2.7,0v9.515h-41.5V3.775A1.074,1.074,0,0,1,36.293,2.7H75.644a1.074,1.074,0,0,1,1.073,1.073V8.517a1.351,1.351,0,1,0,2.7,0V3.775A3.779,3.779,0,0,0,75.644,0H36.293a3.779,3.779,0,0,0-3.775,3.775V17.207H31.234a3.91,3.91,0,0,0-3.513,2.2,6.874,6.874,0,0,0-4.594-1.756H13.971a6.91,6.91,0,0,0-6.9,6.7H6.58a5.9,5.9,0,0,0-5.9,5.9V77.65a5.9,5.9,0,0,0,5.9,5.9h.493a6.91,6.91,0,0,0,6.9,6.7h9.156a6.91,6.91,0,0,0,6.9-6.7H84.788a5.9,5.9,0,0,0,5.9-5.9V30.243a5.9,5.9,0,0,0-5.9-5.9Zm-5.369-4.439H80.7a1.205,1.205,0,0,1,1.2,1.2v3.235H79.418V19.909Zm-48.184,0h1.284v4.439H30.03V21.113A1.205,1.205,0,0,1,31.234,19.909ZM3.386,77.649V30.243A3.2,3.2,0,0,1,6.58,27.05h.488v2.6c0,6.312.866,10.338,1.31,14.115V64.082a76.472,76.472,0,0,0-1.31,16.762H6.58a3.2,3.2,0,0,1-3.194-3.194Zm23.943,5.689a4.206,4.206,0,0,1-4.2,4.2H13.971a4.206,4.206,0,0,1-4.2-4.2c.125-4.272-.488-10.174,1.282-18.85a1.35,1.35,0,0,0,.027-.27V43.675a1.339,1.339,0,0,0-.012-.182,96.118,96.118,0,0,1-1.3-13.841v-5.1a4.206,4.206,0,0,1,4.2-4.2h9.156a4.206,4.206,0,0,1,4.2,4.2v5.1c0,6.083-.839,9.959-1.3,13.841a1.339,1.339,0,0,0-.012.182V64.217a1.349,1.349,0,0,0,.027.27C27.815,73.158,27.2,79.03,27.328,83.338Zm60.654-5.689a3.2,3.2,0,0,1-3.194,3.194H30.03a76.5,76.5,0,0,0-1.31-16.762V43.767c.446-3.8,1.31-7.783,1.31-14.115v-2.6H84.788a3.2,3.2,0,0,1,3.194,3.194V77.649Z" transform="translate(-0.684 0)" fill="#2e008b"/>
          <path id="Path_168" data-name="Path 168" d="M233.511,187.72H196.682a3.19,3.19,0,0,0-3.186,3.186V199.5a3.19,3.19,0,0,0,3.186,3.186h6.4a1.37,1.37,0,0,0,0-2.74h-6.4a.447.447,0,0,1-.447-.446v-8.593a.447.447,0,0,1,.447-.446h36.829a.447.447,0,0,1,.446.446V199.5a.447.447,0,0,1-.446.446h-24.02a1.37,1.37,0,0,0,0,2.74h24.02A3.19,3.19,0,0,0,236.7,199.5v-8.593A3.19,3.19,0,0,0,233.511,187.72Z" transform="translate(-160.3 -154.725)" fill="#0473c0"/>
          <path id="Path_169" data-name="Path 169" d="M199.765,296.387H196.16a2.667,2.667,0,0,0-2.664,2.664v3.469a2.667,2.667,0,0,0,2.664,2.664h3.605a2.667,2.667,0,0,0,2.664-2.664v-3.469A2.667,2.667,0,0,0,199.765,296.387Zm-.076,6.057h-3.453v-3.318h3.453Z" transform="translate(-159.564 -244.226)" fill="#2e008b"/>
          <path id="Path_170" data-name="Path 170" d="M263.675,296.387H260.07a2.667,2.667,0,0,0-2.664,2.664v3.469a2.667,2.667,0,0,0,2.664,2.664h3.605a2.667,2.667,0,0,0,2.664-2.664v-3.469A2.667,2.667,0,0,0,263.675,296.387Zm-.076,6.057h-3.454v-3.318H263.6Z" transform="translate(-212.227 -244.226)" fill="#2e008b"/>
          <path id="Path_171" data-name="Path 171" d="M327.585,296.387H323.98a2.667,2.667,0,0,0-2.664,2.664v3.469a2.667,2.667,0,0,0,2.664,2.664h3.605a2.667,2.667,0,0,0,2.664-2.664v-3.469A2.667,2.667,0,0,0,327.585,296.387Zm-.076,6.057h-3.454v-3.318h3.454Z" transform="translate(-264.89 -244.226)" fill="#2e008b"/>
          <path id="Path_172" data-name="Path 172" d="M391.5,296.387h-3.605a2.667,2.667,0,0,0-2.664,2.664v3.469a2.667,2.667,0,0,0,2.664,2.664H391.5a2.667,2.667,0,0,0,2.664-2.664v-3.469A2.667,2.667,0,0,0,391.5,296.387Zm-.076,6.057h-3.453v-3.318h3.453Z" transform="translate(-317.763 -244.226)" fill="#2e008b"/>
          <path id="Path_173" data-name="Path 173" d="M199.765,369.27H196.16a2.667,2.667,0,0,0-2.664,2.664V375.4a2.667,2.667,0,0,0,2.664,2.664h3.605a2.667,2.667,0,0,0,2.664-2.664v-3.469A2.667,2.667,0,0,0,199.765,369.27Zm-.076,6.058h-3.453V372.01h3.453Z" transform="translate(-159.564 -304.283)" fill="#2e008b"/>
          <path id="Path_174" data-name="Path 174" d="M263.675,369.27H260.07a2.667,2.667,0,0,0-2.664,2.664V375.4a2.667,2.667,0,0,0,2.664,2.664h3.605a2.667,2.667,0,0,0,2.664-2.664v-3.469A2.667,2.667,0,0,0,263.675,369.27Zm-.076,6.058h-3.454V372.01H263.6Z" transform="translate(-212.227 -304.283)" fill="#2e008b"/>
          <path id="Path_175" data-name="Path 175" d="M327.585,369.27H323.98a2.667,2.667,0,0,0-2.664,2.664V375.4a2.667,2.667,0,0,0,2.664,2.664h3.605a2.667,2.667,0,0,0,2.664-2.664v-3.469A2.667,2.667,0,0,0,327.585,369.27Zm-.076,6.058h-3.454V372.01h3.454Z" transform="translate(-264.89 -304.283)" fill="#2e008b"/>
          <path id="Path_176" data-name="Path 176" d="M391.5,369.27h-3.605a2.667,2.667,0,0,0-2.664,2.664V375.4a2.667,2.667,0,0,0,2.664,2.664H391.5a2.667,2.667,0,0,0,2.664-2.664v-3.469A2.667,2.667,0,0,0,391.5,369.27Zm-.076,6.058h-3.453V372.01h3.453Z" transform="translate(-317.763 -304.283)" fill="#2e008b"/>
        </g>
      </g>
    </g>
  </g>
</svg>
