<svg id="Page-1" xmlns="http://www.w3.org/2000/svg" width="39.043" height="39.043" viewBox="0 0 39.043 39.043">
  <g id="_001---Insurance-Document" data-name="001---Insurance-Document" transform="translate(0 0)">
    <path id="Shape" d="M5.651,10.3h3.9a.651.651,0,1,0,0-1.3h-3.9a.651.651,0,1,0,0,1.3Z" transform="translate(-1.746 -3.144)" fill="#004ac9"/>
    <path id="Shape-2" data-name="Shape" d="M16.651,10.3h5.856a.651.651,0,1,0,0-1.3H16.651a.651.651,0,1,0,0,1.3Z" transform="translate(-5.589 -3.144)" fill="#004ac9"/>
    <path id="Shape-3" data-name="Shape" d="M5.651,21.3H26.473a.651.651,0,0,0,0-1.3H5.651a.651.651,0,1,0,0,1.3Z" transform="translate(-1.746 -6.986)" fill="#004ac9"/>
    <path id="Shape-4" data-name="Shape" d="M5.651,25.3h9.11a.651.651,0,1,0,0-1.3H5.651a.651.651,0,1,0,0,1.3Z" transform="translate(-1.746 -8.383)" fill="#004ac9"/>
    <path id="Shape-5" data-name="Shape" d="M5.651,33.3h9.11a.651.651,0,0,0,0-1.3H5.651a.651.651,0,0,0,0,1.3Z" transform="translate(-1.746 -11.177)" fill="#004ac9"/>
    <path id="Shape-6" data-name="Shape" d="M5.651,41.3h9.11a.651.651,0,0,0,0-1.3H5.651a.651.651,0,0,0,0,1.3Z" transform="translate(-1.746 -13.972)" fill="#004ac9"/>
    <path id="Shape-7" data-name="Shape" d="M5.651,49.3h9.11a.651.651,0,0,0,0-1.3H5.651a.651.651,0,0,0,0,1.3Z" transform="translate(-1.746 -16.766)" fill="#004ac9"/>
    <path id="Shape-8" data-name="Shape" d="M38.652,18.955l-7.418-3.2V1.952A1.952,1.952,0,0,0,29.282,0H4.555A1.952,1.952,0,0,0,2.6,1.952V2.6H1.952A1.952,1.952,0,0,0,0,4.555V37.09a1.952,1.952,0,0,0,1.952,1.952H26.679a1.947,1.947,0,0,0,1.4-.594l.534.379a1.164,1.164,0,0,0,1.347,0l6.3-4.481a6.628,6.628,0,0,0,2.792-5.384v-9.41A.651.651,0,0,0,38.652,18.955ZM3.9,1.952A.651.651,0,0,1,4.555,1.3H29.282a.651.651,0,0,1,.651.651V15.19l-.39-.17a.651.651,0,0,0-.515,0l-.39.17V11.062c0-.014-.007-.028-.008-.042a.613.613,0,0,0-.031-.16c0-.015,0-.031-.01-.045s-.01-.014-.014-.022a.651.651,0,0,0-.13-.191L20.635,2.793a.651.651,0,0,0-.191-.13c-.008,0-.014-.01-.022-.014s-.03-.005-.044-.01a.651.651,0,0,0-.162-.032.3.3,0,0,1-.044-.005H3.9ZM20.823,4.824l5.587,5.587H21.473a.651.651,0,0,1-.651-.651Zm5.856,32.917H1.952A.651.651,0,0,1,1.3,37.09V4.555A.651.651,0,0,1,1.952,3.9H19.521V9.761a1.952,1.952,0,0,0,1.952,1.952H27.33v4.039l-2.095.906a.635.635,0,0,0,.143-.39.651.651,0,0,0-.651-.651h-9.11a.651.651,0,0,0,0,1.3h9.012l-3.013,1.3H3.9a.651.651,0,0,0,0,1.3H19.526c0,.01,0,.02,0,.031v1.27h-3.9a.651.651,0,0,0,0,1.3h3.9v1.3H3.9a.651.651,0,0,0,0,1.3H19.521v1.3h-3.9a.651.651,0,0,0,0,1.3h3.9v1.3H3.9a.651.651,0,0,0,0,1.3H19.6a6.521,6.521,0,0,0,.329,1.3H15.617a.651.651,0,0,0,0,1.3h4.972a6.658,6.658,0,0,0,1.094,1.3H3.9a.651.651,0,0,0,0,1.3H23.426l3.545,2.523A.635.635,0,0,1,26.679,37.741Zm11.062-8.779A5.324,5.324,0,0,1,35.5,33.286L29.282,37.71l-6.215-4.425a5.324,5.324,0,0,1-2.244-4.323v-8.98L22,19.474l.012-.005,7.269-3.143,8.459,3.654Z" transform="translate(0 0)" fill="#004ac9"/>
    <path id="Shape-9" data-name="Shape" d="M40.9,27.41,34.39,30.221a.651.651,0,0,0-.39.6v7.7a4.02,4.02,0,0,0,1.7,3.263L40.78,45.4a.651.651,0,0,0,.755,0l5.083-3.619a4.021,4.021,0,0,0,1.7-3.263v-7.7a.651.651,0,0,0-.39-.6L41.418,27.41A.651.651,0,0,0,40.9,27.41Zm6.117,3.839v7.268a2.719,2.719,0,0,1-1.151,2.207L41.158,44.07l-4.705-3.35a2.717,2.717,0,0,1-1.151-2.2V31.246l5.856-2.529Z" transform="translate(-11.876 -9.555)" fill="#004ac9"/>
    <path id="Shape-10" data-name="Shape" d="M39.041,39.685a.651.651,0,0,0-.781,1.041l2.6,1.952a.651.651,0,0,0,.9-.114l5.206-6.507a.651.651,0,0,0-1.016-.813L41.14,41.259Z" transform="translate(-13.273 -12.225)" fill="#004ac9"/>
  </g>
</svg>
