<svg xmlns="http://www.w3.org/2000/svg" width="17.989" height="17.899" viewBox="0 0 17.989 17.899">
  <g id="edit" transform="translate(0 -0.261)">
    <path id="Path_1270" data-name="Path 1270" d="M16.6,48.661a.448.448,0,0,0-.448.448v3.978a1.345,1.345,0,0,1-1.344,1.344H2.24A1.345,1.345,0,0,1,.9,53.087V41.412A1.346,1.346,0,0,1,2.24,40.068H6.218a.448.448,0,1,0,0-.9H2.24A2.243,2.243,0,0,0,0,41.412V53.087a2.243,2.243,0,0,0,2.24,2.24H14.811a2.243,2.243,0,0,0,2.24-2.24V49.109a.448.448,0,0,0-.448-.448Zm0,0" transform="translate(0 -37.168)" fill="#fff"/>
    <path id="Path_1271" data-name="Path 1271" d="M120.217.851a2.016,2.016,0,0,0-2.851,0l-7.993,7.993a.448.448,0,0,0-.115.2l-1.051,3.795a.448.448,0,0,0,.551.551l3.795-1.051a.448.448,0,0,0,.2-.115l7.993-7.993a2.018,2.018,0,0,0,0-2.851Zm-9.868,8.284,6.542-6.542L119,4.7l-6.542,6.542Zm-.421.846,1.686,1.686-2.331.646Zm10.182-6.386-.475.475-2.11-2.11L118,1.485a1.12,1.12,0,0,1,1.584,0l.526.526A1.122,1.122,0,0,1,120.109,3.595Zm0,0" transform="translate(-103.343)" fill="#fff"/>
  </g>
</svg>
