<svg xmlns="http://www.w3.org/2000/svg" width="14.388" height="16.542" viewBox="0 0 14.388 16.542">
  <g id="phone-book" transform="translate(-2.027)">
    <path id="Path_1276" data-name="Path 1276" d="M2.633,6.886V9.093a.553.553,0,1,0,1.1,0V6.886h.553v.052a.553.553,0,0,0,1.1,0v-1.2a.553.553,0,1,0-1.1,0v.052H2.633a.553.553,0,1,0,0,1.1Z" transform="translate(0 -2.476)" fill="#fff"/>
    <path id="Path_1277" data-name="Path 1277" d="M2.733,15.426v2.207a.553.553,0,1,0,1.1,0V15.426h.553v.052a.553.553,0,1,0,1.1,0v-1.2a.553.553,0,1,0-1.1,0v.052H2.733a.553.553,0,0,0,0,1.1Z" transform="translate(-0.1 -6.602)" fill="#fff"/>
    <path id="Path_1278" data-name="Path 1278" d="M13.66,0H5.389A2.75,2.75,0,0,0,2.721,2.068a.553.553,0,0,0,1.07.274A1.649,1.649,0,0,1,5.389,1.1H13.66a1.654,1.654,0,0,1,1.654,1.654V13.787a1.654,1.654,0,0,1-1.654,1.654H5.389a1.654,1.654,0,0,1-1.654-1.654v-.553h.553v.052a.553.553,0,1,0,1.1,0v-1.2a.553.553,0,0,0-1.1,0v.052H2.633a.553.553,0,1,0,0,1.1v.553a2.76,2.76,0,0,0,2.755,2.755H13.66a2.76,2.76,0,0,0,2.755-2.755V2.755A2.76,2.76,0,0,0,13.66,0Z" fill="#fff"/>
    <path id="Path_1279" data-name="Path 1279" d="M15.138,13.486a2.068,2.068,0,1,1,2.068-2.068A2.068,2.068,0,0,1,15.138,13.486Zm0-3a.946.946,0,1,0,.946.946.946.946,0,0,0-.946-.946Z" transform="translate(-5.335 -4.517)" fill="#fff"/>
    <path id="Path_1280" data-name="Path 1280" d="M16.624,20.4a.548.548,0,0,1-.408-.176,2.44,2.44,0,0,0-3.619,0,.553.553,0,1,1-.8-.75,3.541,3.541,0,0,1,5.221,0,.553.553,0,0,1-.408.925Z" transform="translate(-4.619 -8.854)" fill="#fff"/>
  </g>
</svg>
