<svg xmlns="http://www.w3.org/2000/svg" xmlns:xlink="http://www.w3.org/1999/xlink" width="45" height="45" viewBox="0 0 45 45">
  <defs>
    <clipPath id="clip-path">
      <rect id="Rectangle_416" data-name="Rectangle 416" width="45" height="45" transform="translate(13557 -215)" fill="#fff" stroke="#707070" stroke-width="1"/>
    </clipPath>
  </defs>
  <g id="Mask_Group_3" data-name="Mask Group 3" transform="translate(-13557 215)" clip-path="url(#clip-path)">
    <path id="Icon_feather-phone-call" data-name="Icon feather-phone-call" d="M25.736,8.477a8.722,8.722,0,0,1,6.89,6.89M25.736,1.5A15.7,15.7,0,0,1,39.6,15.35M37.859,29.27V34.5a3.489,3.489,0,0,1-3.8,3.489A34.52,34.52,0,0,1,19,32.636,34.015,34.015,0,0,1,8.537,22.17,34.52,34.52,0,0,1,3.182,7.047a3.489,3.489,0,0,1,3.471-3.8h5.233a3.489,3.489,0,0,1,3.489,3,22.4,22.4,0,0,0,1.221,4.9,3.489,3.489,0,0,1-.785,3.681L13.6,17.042A27.909,27.909,0,0,0,24.062,27.508l2.215-2.215a3.489,3.489,0,0,1,3.681-.785,22.4,22.4,0,0,0,4.9,1.221A3.489,3.489,0,0,1,37.859,29.27Z" transform="translate(13558.332 -212)" fill="none" stroke="#0473c0" stroke-linecap="round" stroke-linejoin="round" stroke-width="3"/>
  </g>
</svg>
