<svg xmlns="http://www.w3.org/2000/svg" xmlns:xlink="http://www.w3.org/1999/xlink" width="45" height="45" viewBox="0 0 45 45">
  <defs>
    <clipPath id="clip-path">
      <rect id="Rectangle_414" data-name="Rectangle 414" width="45" height="45" transform="translate(13557 -261)" fill="#fff" stroke="#707070" stroke-width="1"/>
    </clipPath>
  </defs>
  <g id="Mask_Group_2" data-name="Mask Group 2" transform="translate(-13557 261)" clip-path="url(#clip-path)">
    <g id="Icon_ionic-md-paper" data-name="Icon ionic-md-paper" transform="translate(13555.75 -261.5)">
      <path id="Path_13" data-name="Path 13" d="M43.319,4.5H17.461A1.567,1.567,0,0,0,15.94,6.069V9.063h-9.7A4,4,0,0,0,2.25,13.056V32.782a8.241,8.241,0,0,0,8.176,8.223h26.59a7.843,7.843,0,0,0,7.824-7.8V6.021A1.526,1.526,0,0,0,43.319,4.5ZM15.94,12.105V30.358H11.947V13.931a4.642,4.642,0,0,0-.314-1.825Zm-1.616,24.28a5.614,5.614,0,0,1-3.85,1.578,5.193,5.193,0,0,1-5.181-5.181V13.931a1.806,1.806,0,1,1,3.613,0V31.879A1.526,1.526,0,0,0,10.426,33.4h5.466A5,5,0,0,1,14.323,36.385ZM41.8,33.21a4.8,4.8,0,0,1-4.782,4.753h-20a7.947,7.947,0,0,0,1.968-5.181V7.637H41.8Z" transform="translate(0 0)" fill="#0473c0"/>
      <path id="Path_14" data-name="Path 14" d="M17.438,9.563H32.648v5.324H17.438Z" transform="translate(5.347 1.782)" fill="#0473c0"/>
      <path id="Path_15" data-name="Path 15" d="M17.438,15.75H32.648v3.042H17.438Z" transform="translate(5.347 3.961)" fill="#0473c0"/>
      <path id="Path_16" data-name="Path 16" d="M17.438,20.25H32.648v3.042H17.438Z" transform="translate(5.347 5.545)" fill="#0473c0"/>
      <path id="Path_17" data-name="Path 17" d="M32.846,24.75H17.636s0,3.042-.761,3.042H31.011C32.846,27.792,32.846,25.8,32.846,24.75Z" transform="translate(5.149 7.129)" fill="#0473c0"/>
    </g>
  </g>
</svg>
