<svg id="online-voting" xmlns="http://www.w3.org/2000/svg" width="45.875" height="45.875" viewBox="0 0 45.875 45.875">
  <g id="Group_935" data-name="Group 935" transform="translate(0 0)">
    <path id="Path_1305" data-name="Path 1305" d="M44.979,39.6h-.9V10.931a2.691,2.691,0,0,0-2.688-2.688H39.6V1.792A1.794,1.794,0,0,0,37.811,0H8.064A1.794,1.794,0,0,0,6.272,1.792V8.243H4.48a2.691,2.691,0,0,0-2.688,2.688V39.6H.9a.9.9,0,0,0-.9.9v2.688a2.691,2.691,0,0,0,2.688,2.688h40.5a2.691,2.691,0,0,0,2.688-2.688V40.5a.9.9,0,0,0-.9-.9ZM39.6,13.619H42.29v22.4H39.6Zm0-3.584h1.792a.9.9,0,0,1,.9.9v.9H39.6V10.035ZM3.584,13.619H6.272v22.4H3.584Zm.9-3.584H6.272v1.792H3.584v-.9A.9.9,0,0,1,4.48,10.035ZM3.584,39.6V37.811H18.905a.9.9,0,1,0,0-1.792H8.064V1.792H37.811V36.019H26.969a.9.9,0,1,0,0,1.792H42.29V39.6H28.313a.9.9,0,0,0-.9.9h-8.96a.9.9,0,0,0-.9-.9H3.584Zm40.5,3.584a.9.9,0,0,1-.9.9H2.688a.9.9,0,0,1-.9-.9V41.395H16.906a1.793,1.793,0,0,0,1.551.9h8.96a1.793,1.793,0,0,0,1.551-.9H44.083Z" transform="translate(0 0)" fill="#004ac9"/>
    <path id="Path_1306" data-name="Path 1306" d="M276.67,273.191a2.67,2.67,0,0,0-1.9.787l-2.473,2.473-.42-.42a2.688,2.688,0,0,0-3.8,3.8l2.321,2.321a2.691,2.691,0,0,0,3.8,0l4.374-4.374a2.688,2.688,0,0,0-1.9-4.588Zm.633,3.321-4.373,4.373a.9.9,0,0,1-1.267,0l-2.321-2.321a.9.9,0,0,1,1.267-1.267l1.054,1.054a.9.9,0,0,0,1.267,0l3.106-3.106a.9.9,0,0,1,1.267,1.267Z" transform="translate(-243.339 -248.714)" fill="#004ac9"/>
    <path id="Path_1307" data-name="Path 1307" d="M112.693,40a2.688,2.688,0,1,0,2.688,2.688A2.691,2.691,0,0,0,112.693,40Zm0,3.584a.9.9,0,1,1,.9-.9A.9.9,0,0,1,112.693,43.585Z" transform="translate(-100.149 -36.417)" fill="#004ac9"/>
    <path id="Path_1308" data-name="Path 1308" d="M190.9,41.793h17.2a.9.9,0,0,0,0-1.792H190.9a.9.9,0,0,0,0,1.792Z" transform="translate(-172.981 -36.417)" fill="#004ac9"/>
    <path id="Path_1309" data-name="Path 1309" d="M190.9,81.793h17.2a.9.9,0,0,0,0-1.792H190.9a.9.9,0,0,0,0,1.792Z" transform="translate(-172.981 -72.833)" fill="#004ac9"/>
    <path id="Path_1310" data-name="Path 1310" d="M112.693,130a2.688,2.688,0,1,0,2.688,2.688A2.691,2.691,0,0,0,112.693,130Zm0,3.584a.9.9,0,1,1,.9-.9A.9.9,0,0,1,112.693,133.587Z" transform="translate(-100.149 -118.355)" fill="#004ac9"/>
    <path id="Path_1311" data-name="Path 1311" d="M190.9,131.795h17.2a.9.9,0,1,0,0-1.792H190.9a.9.9,0,1,0,0,1.792Z" transform="translate(-172.981 -118.355)" fill="#004ac9"/>
    <path id="Path_1312" data-name="Path 1312" d="M190.9,171.794h17.2a.9.9,0,1,0,0-1.792H190.9a.9.9,0,1,0,0,1.792Z" transform="translate(-172.981 -154.77)" fill="#004ac9"/>
    <path id="Path_1313" data-name="Path 1313" d="M112.693,220a2.688,2.688,0,1,0,2.688,2.688A2.691,2.691,0,0,0,112.693,220Zm0,3.584a.9.9,0,1,1,.9-.9A.9.9,0,0,1,112.693,223.588Z" transform="translate(-100.149 -200.292)" fill="#004ac9"/>
    <path id="Path_1314" data-name="Path 1314" d="M190.9,221.8h17.2a.9.9,0,0,0,0-1.792H190.9a.9.9,0,0,0,0,1.792Z" transform="translate(-172.981 -200.292)" fill="#004ac9"/>
    <path id="Path_1315" data-name="Path 1315" d="M190.9,261.8h8.6a.9.9,0,1,0,0-1.792h-8.6a.9.9,0,1,0,0,1.792Z" transform="translate(-172.981 -236.708)" fill="#004ac9"/>
    <path id="Path_1316" data-name="Path 1316" d="M112.693,310.005a2.688,2.688,0,1,0,2.688,2.688A2.691,2.691,0,0,0,112.693,310.005Zm0,3.584a.9.9,0,1,1,.9-.9A.9.9,0,0,1,112.693,313.589Z" transform="translate(-100.149 -282.229)" fill="#004ac9"/>
    <path id="Path_1317" data-name="Path 1317" d="M190.9,311.8h3.3a.9.9,0,1,0,0-1.792h-3.3a.9.9,0,0,0,0,1.792Z" transform="translate(-172.982 -282.23)" fill="#004ac9"/>
    <path id="Path_1318" data-name="Path 1318" d="M195.095,350.9a.9.9,0,0,0-.9-.9h-3.3a.9.9,0,0,0,0,1.792h3.3A.9.9,0,0,0,195.095,350.9Z" transform="translate(-172.982 -318.645)" fill="#004ac9"/>
    <path id="Path_1319" data-name="Path 1319" d="M246.894,402h0a.9.9,0,1,0,.9.9A.9.9,0,0,0,246.894,402Z" transform="translate(-223.957 -365.981)" fill="#004ac9"/>
  </g>
</svg>
