<svg xmlns="http://www.w3.org/2000/svg" width="24.837" height="25.58" viewBox="0 0 24.837 25.58">
  <g id="edit5" transform="translate(0)">
    <path id="Path_1456" data-name="Path 1456" d="M23.59,2.4a2.562,2.562,0,0,0-3.509.886l-.456.764-.771,1.291V4.507a1.79,1.79,0,0,0-1.788-1.788h-.894V1.788A1.79,1.79,0,0,0,14.384,0H1.788A1.79,1.79,0,0,0,0,1.788V21.072A1.79,1.79,0,0,0,1.788,22.86h.894v.931A1.79,1.79,0,0,0,4.47,25.58h12.6a1.79,1.79,0,0,0,1.788-1.788V15.3c.057-.078.111-.158.161-.241l5-8.382.456-.765A2.562,2.562,0,0,0,23.59,2.4ZM20.939,3.8a1.56,1.56,0,0,1,2.679,1.6l-.2.336-.4-.241L20.739,4.137ZM17.373,15.328l-1.431.848a.581.581,0,0,1-.07.036.55.55,0,0,1-.442,0,.63.63,0,0,1-.061-.031.553.553,0,0,1-.271-.427.6.6,0,0,1,0-.077l.068-1.662v0c0-.026,0-.051.005-.077l2.272,1.356-.068.043ZM1.788,21.861A.79.79,0,0,1,1,21.072V1.788A.79.79,0,0,1,1.788,1h12.6a.79.79,0,0,1,.789.789v.931H4.47A1.79,1.79,0,0,0,2.682,4.507V21.861Zm16.067,1.931a.79.79,0,0,1-.789.789H4.47a.79.79,0,0,1-.789-.789V4.507a.79.79,0,0,1,.789-.789h12.6a.79.79,0,0,1,.789.789V7.018l-3.234,5.417c-.023.038-.044.077-.065.116l-.015.028c-.02.037-.039.075-.057.113l0,.006q-.029.06-.055.121l-.013.03q-.023.054-.043.109l0,.012h0l0,0c-.013.036-.025.071-.037.107,0,.014-.009.028-.013.042s-.014.043-.02.065v0h0l-.014.05-.015.058c0,.018-.009.037-.014.055s-.009.04-.013.061-.011.054-.016.081-.009.049-.013.073l-.008.051c0,.022-.006.043-.009.065s0,.033-.006.049-.005.049-.007.073l0,.041,0,.035c0,.028,0,.054,0,.08L14.1,15.631c0,.036,0,.071,0,.107a1.56,1.56,0,0,0,.76,1.3c.022.013.044.025.067.037l.027.015.036.017.061.028.024.009c.025.01.049.02.074.028l.02.006.08.025.017,0c.028.007.056.014.085.02l.013,0,.089.015h.014c.03,0,.06.007.089.009h.014c.03,0,.06,0,.09,0h.019l.085,0h.014l.089-.009h.007c.032,0,.064-.01.1-.016a1.56,1.56,0,0,0,.488-.188l1.4-.832Zm.3-9.245v0l-2.678-1.6v0L20.226,5l.4.241L22.9,6.594Zm0,0" fill="#fff"/>
    <path id="Path_1457" data-name="Path 1457" d="M354.936,137.482l-2.531,4.24a.5.5,0,1,0,.858.512l2.531-4.24a.5.5,0,0,0-.858-.512Zm0,0" transform="translate(-334.732 -130.382)" fill="#fff"/>
    <path id="Path_1458" data-name="Path 1458" d="M122.309,129.233h8.366a.5.5,0,0,0,0-1h-8.366a.5.5,0,0,0,0,1Zm0,0" transform="translate(-115.724 -121.827)" fill="#fff"/>
    <path id="Path_1459" data-name="Path 1459" d="M122.309,201.241h7.666a.5.5,0,1,0,0-1h-7.666a.5.5,0,1,0,0,1Zm0,0" transform="translate(-115.724 -190.238)" fill="#fff"/>
    <path id="Path_1460" data-name="Path 1460" d="M128.181,272.254h-5.873a.5.5,0,1,0,0,1h5.873a.5.5,0,1,0,0-1Zm0,0" transform="translate(-115.723 -258.652)" fill="#fff"/>
    <path id="Path_1461" data-name="Path 1461" d="M271.734,344.58a.529.529,0,0,0-.046-.086.516.516,0,0,0-.062-.076.506.506,0,0,0-.451-.136.523.523,0,0,0-.093.028.5.5,0,0,0-.308.462.5.5,0,0,0,1,0,.489.489,0,0,0-.01-.1A.505.505,0,0,0,271.734,344.58Zm0,0" transform="translate(-257.246 -327.072)" fill="#fff"/>
    <path id="Path_1462" data-name="Path 1462" d="M127.527,344.266h-5.219a.5.5,0,0,0,0,1h5.219a.5.5,0,1,0,0-1Zm0,0" transform="translate(-115.723 -327.066)" fill="#fff"/>
  </g>
</svg>
