<svg xmlns="http://www.w3.org/2000/svg" xmlns:xlink="http://www.w3.org/1999/xlink" width="24" height="25.58" viewBox="0 0 24 25.58">
  <defs>
    <linearGradient id="linear-gradient" x1="0.5" x2="0.5" y2="1" gradientUnits="objectBoundingBox">
      <stop offset="0" stop-color="#004ac9"/>
      <stop offset="1" stop-color="#0b8bf6"/>
    </linearGradient>
  </defs>
  <g id="deadline" transform="translate(-0.5 0)">
    <path id="Path_1444" data-name="Path 1444" d="M105.2,144.954h5.328a.5.5,0,0,0,0-1.009H105.2a.5.5,0,1,0,0,1.009Zm0,0" transform="translate(-98.934 -136.756)" fill="url(#linear-gradient)"/>
    <path id="Path_1445" data-name="Path 1445" d="M105.2,205.216h3.918a.5.5,0,0,0,0-1.009H105.2a.5.5,0,0,0,0,1.009Zm0,0" transform="translate(-98.934 -194.009)" fill="url(#linear-gradient)"/>
    <path id="Path_1446" data-name="Path 1446" d="M107.2,264.473h-2a.5.5,0,0,0,0,1.009h2a.5.5,0,0,0,0-1.009Zm0,0" transform="translate(-98.934 -251.265)" fill="url(#linear-gradient)"/>
    <path id="Path_1447" data-name="Path 1447" d="M106.675,324.734H105.2a.5.5,0,1,0,0,1.009h1.48a.5.5,0,1,0,0-1.009Zm0,0" transform="translate(-98.934 -308.516)" fill="url(#linear-gradient)"/>
    <path id="Path_1448" data-name="Path 1448" d="M56.537,170.75a.5.5,0,0,0-.658-.272.5.5,0,0,0-.087.046.482.482,0,0,0-.139.139.508.508,0,0,0-.046.087.525.525,0,0,0-.029.094.494.494,0,0,0-.01.1.488.488,0,0,0,.01.1.516.516,0,0,0,.075.182.489.489,0,0,0,.139.139.473.473,0,0,0,.087.046.526.526,0,0,0,.094.029.551.551,0,0,0,.1.009.559.559,0,0,0,.1-.009.552.552,0,0,0,.094-.029.489.489,0,0,0,.087-.046.471.471,0,0,0,.077-.063.485.485,0,0,0,.109-.164.477.477,0,0,0,.029-.094.5.5,0,0,0,.01-.1.509.509,0,0,0-.01-.1A.5.5,0,0,0,56.537,170.75Zm0,0" transform="translate(-52.288 -161.927)" fill="url(#linear-gradient)"/>
    <path id="Path_1449" data-name="Path 1449" d="M22.373,12.368l.935-1.109a1.271,1.271,0,0,0-.163-1.8,1.3,1.3,0,0,0-1.822.161l-1,1.183a7.864,7.864,0,0,0-2.432-.826V8.96h0a1.157,1.157,0,1,0,0-2.315H17.1V4.771a2.108,2.108,0,0,0-2.116-2.1h-.439V2.124A2.137,2.137,0,0,0,12.4,0H3.325A2.815,2.815,0,0,0,.5,2.8V17.255a2.136,2.136,0,0,0,2.144,2.124h.634v.265a2.108,2.108,0,0,0,2.116,2.1H9.748A7.948,7.948,0,0,0,24.5,17.722a7.736,7.736,0,0,0-2.127-5.354Zm-.275-2.11a.287.287,0,0,1,.4-.035.28.28,0,0,1,.036.4h0l-.9,1.061-.028-.022q-.082-.067-.165-.131l-.036-.028q-.1-.077-.2-.15l-.018-.013Zm-5.213-.388-.086,0h-.02q-.212-.006-.424,0h-.027l-.081,0V8.96h.638ZM18.054,7.8a.159.159,0,0,1-.16.158H15.236a.158.158,0,1,1,0-.316h2.659A.159.159,0,0,1,18.054,7.8ZM9.238,20.741H5.395a1.1,1.1,0,0,1-1.107-1.1v-8.63a.5.5,0,0,0-1.009,0v7.366H2.645a1.131,1.131,0,0,1-1.135-1.124V2.8A1.809,1.809,0,0,1,3.325,1H12.4A1.131,1.131,0,0,1,13.54,2.124v.552H5.395a2.108,2.108,0,0,0-2.116,2.1V7.017a.5.5,0,0,0,1.009,0V4.771a1.1,1.1,0,0,1,1.107-1.1h9.593a1.1,1.1,0,0,1,1.108,1.1V6.646h-.859a1.157,1.157,0,1,0,0,2.315V9.974l-.046.008-.08.014-.09.017-.082.016-.087.019-.083.018-.085.02-.084.02-.082.021-.086.023-.077.022c-.08.023-.16.047-.24.072l-.007,0-.095.032-.068.023-.092.033-.07.025-.09.034-.07.027-.089.036-.07.029-.088.038-.069.03-.088.04-.068.032-.087.042L13,10.7l-.087.044-.065.034-.087.046-.062.035-.087.049-.058.034-.09.053-.044.027q-.112.068-.222.14l-.017.011-.087.059-.056.037-.08.056-.061.043-.077.056-.062.046-.075.058-.062.048-.073.058-.061.05-.071.06-.061.052-.07.061-.06.053-.069.063-.059.055-.068.064-.057.056-.067.066-.055.056-.067.069-.046.05-.07.075A7.8,7.8,0,0,0,8.972,20l0,.015c.014.044.028.088.042.132l.022.068.026.074c.015.043.03.085.045.127l0,.01c.039.1.079.209.123.312Zm7.328,3.84a6.936,6.936,0,0,1-6.5-4.483l-.01-.027-.037-.1-.034-.1L9.965,19.8a6.841,6.841,0,0,1-.311-1.636l0-.026q-.005-.091-.009-.183c0-.009,0-.018,0-.027,0-.069,0-.138,0-.207a6.845,6.845,0,0,1,3.849-6.15l.006,0,.067-.032.075-.036h0a6.968,6.968,0,0,1,2.159-.6,7.087,7.087,0,0,1,1.491,0l.045,0a6.882,6.882,0,0,1,2.843.963q.079.048.156.1a6.948,6.948,0,0,1,1.011.792,6.764,6.764,0,0,1,2.147,4.964,6.9,6.9,0,0,1-6.926,6.859Zm0,0" transform="translate(0 0)" fill="url(#linear-gradient)"/>
    <path id="Path_1450" data-name="Path 1450" d="M206.26,236.059a5.986,5.986,0,1,0,5.986,5.986A5.993,5.993,0,0,0,206.26,236.059Zm0,10.964a4.977,4.977,0,1,1,4.977-4.977A4.983,4.983,0,0,1,206.26,247.023Zm0,0" transform="translate(-189.695 -224.4)" fill="url(#linear-gradient)"/>
    <path id="Path_1451" data-name="Path 1451" d="M275.591,287.807a.5.5,0,0,0-.7.116l-1.857,2.589-1.583-.445a.5.5,0,0,0-.273.972l1.924.54a.5.5,0,0,0,.546-.192l2.064-2.876A.5.5,0,0,0,275.591,287.807Zm0,0" transform="translate(-256.668 -273.362)" fill="url(#linear-gradient)"/>
    <path id="Path_1452" data-name="Path 1452" d="M309.438,264.842a.5.5,0,0,0,.5-.5v-.466a.5.5,0,0,0-1.009,0v.466A.5.5,0,0,0,309.438,264.842Zm0,0" transform="translate(-292.873 -250.216)" fill="url(#linear-gradient)"/>
    <path id="Path_1453" data-name="Path 1453" d="M309.438,416.832a.5.5,0,0,0-.5.5v.466a.5.5,0,0,0,1.009,0v-.466A.5.5,0,0,0,309.438,416.832Zm0,0" transform="translate(-292.873 -396.053)" fill="url(#linear-gradient)"/>
    <path id="Path_1454" data-name="Path 1454" d="M382.017,344.719h-.466a.5.5,0,1,0,0,1.009h.466a.5.5,0,0,0,0-1.009Zm0,0" transform="translate(-361.348 -327.503)" fill="url(#linear-gradient)"/>
    <path id="Path_1455" data-name="Path 1455" d="M228.552,344.719h-.466a.5.5,0,1,0,0,1.009h.466a.5.5,0,1,0,0-1.009Zm0,0" transform="translate(-215.625 -327.503)" fill="url(#linear-gradient)"/>
  </g>
</svg>
