<svg xmlns="http://www.w3.org/2000/svg" width="35" height="35" viewBox="0 0 35 35">
  <g id="Group_1269" data-name="Group 1269" transform="translate(0.415 0.565)">
    <circle id="Ellipse_265" data-name="Ellipse 265" cx="17.5" cy="17.5" r="17.5" transform="translate(-0.415 -0.565)" fill="#0058c6"/>
    <path id="_6" data-name="6" d="M28.377,8.778a1.175,1.175,0,0,1-.869.311,5.3,5.3,0,0,1-1.057-.142c-.367-.077-.683-.154-.962-.221A5.844,5.844,0,0,0,24.171,8.5a5.748,5.748,0,0,0-1,.188,9.673,9.673,0,0,1-2.181.337c-.769,0-1.578-.06-2.088-.106a4.734,4.734,0,0,1-1.487,2.431,12.529,12.529,0,0,1-2.2,1.492.572.572,0,0,1-.713-.85,3.527,3.527,0,0,0,.6-1.873c-.009-.393-.024-.7-.038-.935a5.336,5.336,0,0,0-2.773,1.7,8.012,8.012,0,0,0-1.34,4.43c.118.766.132.766.5.766a4.057,4.057,0,0,1,3.272,1.239.572.572,0,0,1-.4.954,5.123,5.123,0,0,0-1.278.213,5.741,5.741,0,0,0-.6.265,2.753,2.753,0,0,1-.9.321,2.357,2.357,0,0,1-.317.017,2.175,2.175,0,0,1-.666.872,3.874,3.874,0,0,1-.765.435,1.766,1.766,0,0,0-.693.458,3.438,3.438,0,0,0-.615,1.194.573.573,0,0,1-.53.437H7.93a.571.571,0,0,1-.541-.385,4.31,4.31,0,0,1,.064-2.458,7.4,7.4,0,0,1,.58-1.351A3.084,3.084,0,0,0,8.558,16.3,17.28,17.28,0,0,1,8.68,8.115a10.619,10.619,0,0,1,4.1-5.271c.248-.16.471-.3.659-.418a2.864,2.864,0,0,0-.659-.4,6.566,6.566,0,0,0-.922-.341h-.013a.533.533,0,0,1-.513-.407A.591.591,0,0,1,11.62.624,5.2,5.2,0,0,1,14.051,0a4.474,4.474,0,0,1,.827.076,10,10,0,0,1,2,.622,10.369,10.369,0,0,0,1.875.6c.383.081.735.143,1.076.2a11.414,11.414,0,0,1,3.7,1.159c1.976,1.009,3.088,2.114,3.129,3.11a3.777,3.777,0,0,1-.014.562c.185.092.41.209.637.339.924.526,1.312.919,1.338,1.359A.963.963,0,0,1,28.377,8.778Z" transform="translate(0.856 6.677)" fill="#fff"/>
  </g>
</svg>
