<svg id="paperwork" xmlns="http://www.w3.org/2000/svg" width="22.977" height="28.011" viewBox="0 0 22.977 28.011">
  <path id="Path_27992" data-name="Path 27992" d="M68.818,5.631,63.347.16A.547.547,0,0,0,62.96,0H49.831a1.643,1.643,0,0,0-1.641,1.641v.547h-.547A1.643,1.643,0,0,0,46,3.83v22.54a1.643,1.643,0,0,0,1.641,1.641H65.149a1.643,1.643,0,0,0,1.641-1.641v-.547h.547a1.643,1.643,0,0,0,1.641-1.641V6.018A.547.547,0,0,0,68.818,5.631ZM63.508,1.868l3.6,3.6H64.055a.548.548,0,0,1-.547-.547Zm4.377,22.313a.548.548,0,0,1-.547.547H49.831a.548.548,0,0,1-.547-.547V10.942a.547.547,0,0,0-1.094,0V24.181a1.643,1.643,0,0,0,1.641,1.641H65.7v.547a.548.548,0,0,1-.547.547H47.642a.548.548,0,0,1-.547-.547V3.83a.548.548,0,0,1,.547-.547h.547V6.018a.547.547,0,0,0,1.094,0V1.641a.548.548,0,0,1,.547-.547H62.413v3.83a1.643,1.643,0,0,0,1.641,1.641h3.83Z" transform="translate(-46.001 0)" fill="#fff"/>
  <path id="Path_27993" data-name="Path 27993" d="M155.3,100h-8.753a.547.547,0,0,0,0,1.094H155.3a.547.547,0,0,0,0-1.094Z" transform="translate(-140.534 -94.529)" fill="#fff"/>
  <path id="Path_27994" data-name="Path 27994" d="M155.3,197.333h-8.753a.547.547,0,1,0,0,1.094H155.3a.547.547,0,1,0,0-1.094Z" transform="translate(-140.534 -186.537)" fill="#fff"/>
  <path id="Path_27995" data-name="Path 27995" d="M146.552,247.093h4.376a.547.547,0,1,0,0-1.094h-4.376a.547.547,0,1,0,0,1.094Z" transform="translate(-140.534 -232.541)" fill="#fff"/>
  <path id="Path_27996" data-name="Path 27996" d="M146.552,295.759h4.376a.547.547,0,1,0,0-1.094h-4.376a.547.547,0,1,0,0,1.094Z" transform="translate(-140.534 -278.544)" fill="#fff"/>
  <path id="Path_27997" data-name="Path 27997" d="M154.1,343.331h-7.55a.547.547,0,1,0,0,1.094h7.55a.547.547,0,1,0,0-1.094Z" transform="translate(-140.534 -324.548)" fill="#fff"/>
  <path id="Path_27998" data-name="Path 27998" d="M153.625,392h-7.073a.547.547,0,1,0,0,1.094h7.073a.547.547,0,1,0,0-1.094Z" transform="translate(-140.534 -370.553)" fill="#fff"/>
  <path id="Path_27999" data-name="Path 27999" d="M146.552,52.428h4.376a.547.547,0,1,0,0-1.094h-4.376a.547.547,0,1,0,0,1.094Z" transform="translate(-140.534 -48.526)" fill="#fff"/>
  <path id="Path_28000" data-name="Path 28000" d="M86.55,145a.547.547,0,1,0,.547.547h0A.547.547,0,0,0,86.55,145Z" transform="translate(-83.815 -137.067)" fill="#fff"/>
</svg>
