<svg xmlns="http://www.w3.org/2000/svg" width="36.573" height="40" viewBox="0 0 36.573 40">
  <g id="reload" transform="translate(-20.982 0)">
    <g id="Group_5212" data-name="Group 5212" transform="translate(20.982 0)">
      <path id="Path_27092" data-name="Path 27092" d="M28.43,7.932A15.946,15.946,0,0,1,49.16,7.385l-4.746.18a1.1,1.1,0,0,0,.041,2.205H44.5l7.286-.27a1.1,1.1,0,0,0,1.062-1.1V8.267h0l-.27-7.2a1.1,1.1,0,1,0-2.205.082l.172,4.517a18.136,18.136,0,0,0-23.59.637,18.143,18.143,0,0,0-5.456,17.733,1.1,1.1,0,0,0,1.07.841.956.956,0,0,0,.261-.033,1.1,1.1,0,0,0,.809-1.331A15.937,15.937,0,0,1,28.43,7.932Z" transform="translate(-20.982 0)" fill="#004ac9"/>
      <path id="Path_27093" data-name="Path 27093" d="M108.756,186.055a1.1,1.1,0,1,0-2.14.523A15.934,15.934,0,0,1,80.96,202.6l4.8-.433a1.1,1.1,0,0,0-.2-2.2l-7.261.653a1.1,1.1,0,0,0-1,1.2l.653,7.261a1.1,1.1,0,0,0,1.095,1,.4.4,0,0,0,.1-.008,1.1,1.1,0,0,0,1-1.2l-.392-4.419a18.014,18.014,0,0,0,10.48,3.994c.31.016.621.025.923.025a18.139,18.139,0,0,0,17.6-22.421Z" transform="translate(-72.696 -170.086)" fill="#004ac9"/>
    </g>
  </g>
</svg>
