<svg xmlns="http://www.w3.org/2000/svg" width="48.51" height="48.51" viewBox="0 0 48.51 48.51">
  <g id="_x31_123_x2C__Device_x2C__Document_x2C__Fax_x2C__Office_x2C__Printer" transform="translate(-26 -26)">
    <g id="Group_902" data-name="Group 902" transform="translate(26 26)">
      <path id="Path_1286" data-name="Path 1286" d="M71.188,38.655H66.073V30.271A4.276,4.276,0,0,0,61.8,26H38.707a4.276,4.276,0,0,0-4.271,4.271v8.384H29.322A3.326,3.326,0,0,0,26,41.977V58.533a3.326,3.326,0,0,0,3.322,3.322h4.06v11.6a1.055,1.055,0,0,0,1.055,1.055H66.073a1.055,1.055,0,0,0,1.055-1.055v-11.6h4.06a3.326,3.326,0,0,0,3.322-3.322V41.977A3.326,3.326,0,0,0,71.188,38.655ZM38.707,28.109H61.8a2.163,2.163,0,0,1,2.159,2.109H36.548A2.163,2.163,0,0,1,38.707,28.109Zm-2.162,4.218H63.964v6.327H36.546ZM65.019,72.4H35.491V53.419H65.019ZM72.4,58.533a1.214,1.214,0,0,1-1.213,1.213h-4.06V52.364a1.055,1.055,0,0,0-1.055-1.055H34.436a1.055,1.055,0,0,0-1.055,1.055v7.382h-4.06a1.214,1.214,0,0,1-1.213-1.213V41.977a1.214,1.214,0,0,1,1.213-1.213H71.188A1.214,1.214,0,0,1,72.4,41.977Z" transform="translate(-26 -26)" fill="#fff"/>
      <path id="Path_1287" data-name="Path 1287" d="M389.164,186a3.164,3.164,0,1,0,3.164,3.164A3.167,3.167,0,0,0,389.164,186Zm0,4.218a1.055,1.055,0,1,1,1.055-1.055A1.056,1.056,0,0,1,389.164,190.218Z" transform="translate(-348.036 -169.127)" fill="#fff"/>
      <path id="Path_1288" data-name="Path 1288" d="M70.218,206H67.055a1.055,1.055,0,1,0,0,2.109h3.164a1.055,1.055,0,1,0,0-2.109Z" transform="translate(-61.782 -187.018)" fill="#fff"/>
      <path id="Path_1289" data-name="Path 1289" d="M140.218,206h-3.164a1.055,1.055,0,1,0,0,2.109h3.164a1.055,1.055,0,1,0,0-2.109Z" transform="translate(-124.4 -187.018)" fill="#fff"/>
      <path id="Path_1290" data-name="Path 1290" d="M160.255,306h-23.2a1.055,1.055,0,1,0,0,2.109h23.2a1.055,1.055,0,1,0,0-2.109Z" transform="translate(-124.4 -276.472)" fill="#fff"/>
      <path id="Path_1291" data-name="Path 1291" d="M160.255,346h-23.2a1.055,1.055,0,1,0,0,2.109h23.2a1.055,1.055,0,1,0,0-2.109Z" transform="translate(-124.4 -312.254)" fill="#fff"/>
      <path id="Path_1292" data-name="Path 1292" d="M160.255,386h-23.2a1.055,1.055,0,0,0,0,2.109h23.2a1.055,1.055,0,0,0,0-2.109Z" transform="translate(-124.4 -348.036)" fill="#fff"/>
      <path id="Path_1293" data-name="Path 1293" d="M160.255,426h-23.2a1.055,1.055,0,0,0,0,2.109h23.2a1.055,1.055,0,0,0,0-2.109Z" transform="translate(-124.4 -383.817)" fill="#fff"/>
    </g>
  </g>
</svg>
