<svg xmlns="http://www.w3.org/2000/svg" width="20" height="20" viewBox="0 0 20 20">
  <g id="download" transform="translate(-2 -2)">
    <path id="Path_1337" data-name="Path 1337" d="M11.293,17.707c.009.009.021.012.031.021a.986.986,0,0,0,.293.2h0a1,1,0,0,0,1.087-.217l5-5a1,1,0,1,0-1.414-1.414L13,14.586V3a1,1,0,0,0-2,0V14.586L7.707,11.293a1,1,0,1,0-1.414,1.414Z" fill="#004ac9"/>
    <path id="Path_1338" data-name="Path 1338" d="M20,16v3a1,1,0,0,1-1,1H5a1,1,0,0,1-1-1V16a1,1,0,0,0-2,0v3a3,3,0,0,0,3,3H19a3,3,0,0,0,3-3V16a1,1,0,0,0-2,0Z" fill="#004ac9"/>
  </g>
</svg>
