<svg xmlns="http://www.w3.org/2000/svg" width="22.054" height="22.054" viewBox="0 0 22.054 22.054">
  <g id="_04" data-name="04" transform="translate(-2 -2)">
    <path id="Path_26735" data-name="Path 26735" d="M21.691,4.363H18.54V2.788a.788.788,0,0,0-1.575,0V4.363H9.089V2.788a.788.788,0,0,0-1.575,0V4.363H4.363A2.363,2.363,0,0,0,2,6.726V21.691a2.363,2.363,0,0,0,2.363,2.363H21.691a2.363,2.363,0,0,0,2.363-2.363V6.726A2.363,2.363,0,0,0,21.691,4.363Zm0,18.116H4.363a.788.788,0,0,1-.788-.788V11.452H18.54a.788.788,0,0,0,0-1.575H3.575V6.726a.788.788,0,0,1,.788-.788H7.513V7.513a.788.788,0,0,0,1.575,0V5.938h7.876V7.513a.788.788,0,0,0,1.575,0V5.938h3.151a.788.788,0,0,1,.788.788V9.876H20.9a.788.788,0,1,0,0,1.575h1.575V21.691A.788.788,0,0,1,21.691,22.478Z" transform="translate(0)" fill="#004ac9"/>
  </g>
</svg>
