<svg id="loupe_1_" data-name="loupe (1)" xmlns="http://www.w3.org/2000/svg" width="24.111" height="24.111" viewBox="0 0 24.111 24.111">
  <g id="Group_5372" data-name="Group 5372" transform="translate(14.128 8.948)">
    <g id="Group_5371" data-name="Group 5371">
      <path id="Path_28007" data-name="Path 28007" d="M300.471,190a.471.471,0,1,0,.471.471A.471.471,0,0,0,300.471,190Z" transform="translate(-300 -190)" fill="#004ac9"/>
    </g>
  </g>
  <g id="Group_5374" data-name="Group 5374">
    <g id="Group_5373" data-name="Group 5373">
      <path id="Path_28008" data-name="Path 28008" d="M23.559,20.9,17.274,14.61a9.334,9.334,0,0,0,1.563-5.191,9.418,9.418,0,1,0-9.418,9.418,9.334,9.334,0,0,0,5.191-1.563l1.737,1.737h0L20.9,23.559A1.883,1.883,0,1,0,23.559,20.9Zm-9.171-4.615h0a8.485,8.485,0,1,1,1.893-1.893A8.518,8.518,0,0,1,14.388,16.281Zm.988.427a9.45,9.45,0,0,0,1.332-1.332l1.336,1.336a11.431,11.431,0,0,1-1.332,1.332Zm7.517,6.185a.941.941,0,0,1-1.332,0L17.38,18.712a12.375,12.375,0,0,0,1.332-1.332l4.182,4.182a.941.941,0,0,1,0,1.331Z" fill="#004ac9"/>
    </g>
  </g>
  <g id="Group_5376" data-name="Group 5376" transform="translate(1.884 1.884)">
    <g id="Group_5375" data-name="Group 5375">
      <path id="Path_28009" data-name="Path 28009" d="M47.535,40a7.535,7.535,0,1,0,7.535,7.535A7.543,7.543,0,0,0,47.535,40Zm0,14.128a6.593,6.593,0,1,1,6.593-6.593A6.6,6.6,0,0,1,47.535,54.128Z" transform="translate(-40 -40)" fill="#004ac9"/>
    </g>
  </g>
  <g id="Group_5378" data-name="Group 5378" transform="translate(8.948 3.767)">
    <g id="Group_5377" data-name="Group 5377">
      <path id="Path_28010" data-name="Path 28010" d="M195.748,83.63A5.66,5.66,0,0,0,190.471,80a.471.471,0,0,0,0,.942,4.741,4.741,0,0,1,4.4,3.026.471.471,0,1,0,.879-.338Z" transform="translate(-190 -80)" fill="#004ac9"/>
    </g>
  </g>
</svg>
