<svg xmlns="http://www.w3.org/2000/svg" width="77.031" height="85" viewBox="0 0 77.031 85">
  <g id="checklist" transform="translate(-3)">
    <path id="Path_7538" data-name="Path 7538" d="M15.641,21H10.328A1.328,1.328,0,0,0,9,22.328v5.312a1.328,1.328,0,0,0,1.328,1.328h5.312a1.328,1.328,0,0,0,1.328-1.328V22.328A1.328,1.328,0,0,0,15.641,21Zm-1.328,5.313H11.656V23.656h2.656Z" transform="translate(1.969 6.891)" fill="#004ac9"/>
    <path id="Path_7539" data-name="Path 7539" d="M10.328,10.656H22.281a1.328,1.328,0,0,0,0-2.656H10.328a1.328,1.328,0,0,0,0,2.656Z" transform="translate(1.969 2.625)" fill="#004ac9"/>
    <path id="Path_7540" data-name="Path 7540" d="M10.328,14.656H28.922a1.328,1.328,0,1,0,0-2.656H10.328a1.328,1.328,0,0,0,0,2.656Z" transform="translate(1.969 3.938)" fill="#004ac9"/>
    <path id="Path_7541" data-name="Path 7541" d="M17,22.328a1.328,1.328,0,0,0,1.328,1.328H47.547a1.328,1.328,0,0,0,0-2.656H18.328A1.328,1.328,0,0,0,17,22.328Z" transform="translate(4.594 6.891)" fill="#004ac9"/>
    <path id="Path_7542" data-name="Path 7542" d="M18.328,27.656H32.938a1.328,1.328,0,1,0,0-2.656H18.328a1.328,1.328,0,0,0,0,2.656Z" transform="translate(4.594 8.203)" fill="#004ac9"/>
    <path id="Path_7543" data-name="Path 7543" d="M15.641,31H10.328A1.328,1.328,0,0,0,9,32.328v5.313a1.328,1.328,0,0,0,1.328,1.328h5.312a1.328,1.328,0,0,0,1.328-1.328V32.328A1.328,1.328,0,0,0,15.641,31Zm-1.328,5.312H11.656V33.656h2.656Z" transform="translate(1.969 10.172)" fill="#004ac9"/>
    <path id="Path_7544" data-name="Path 7544" d="M17,32.328a1.328,1.328,0,0,0,1.328,1.328H50.2A1.328,1.328,0,0,0,50.2,31H18.328A1.328,1.328,0,0,0,17,32.328Z" transform="translate(4.594 10.172)" fill="#004ac9"/>
    <path id="Path_7545" data-name="Path 7545" d="M18.328,35a1.328,1.328,0,1,0,0,2.656h21.25a1.328,1.328,0,1,0,0-2.656Z" transform="translate(4.594 11.484)" fill="#004ac9"/>
    <path id="Path_7546" data-name="Path 7546" d="M15.641,41H10.328A1.328,1.328,0,0,0,9,42.328v5.313a1.328,1.328,0,0,0,1.328,1.328h5.312a1.328,1.328,0,0,0,1.328-1.328V42.328A1.328,1.328,0,0,0,15.641,41Zm-1.328,5.313H11.656V43.656h2.656Z" transform="translate(1.969 13.453)" fill="#004ac9"/>
    <path id="Path_7547" data-name="Path 7547" d="M51.531,42.328A1.328,1.328,0,0,0,50.2,41H18.328a1.328,1.328,0,0,0,0,2.656H50.2A1.328,1.328,0,0,0,51.531,42.328Z" transform="translate(4.594 13.453)" fill="#004ac9"/>
    <path id="Path_7548" data-name="Path 7548" d="M18.328,47.656H32.938a1.328,1.328,0,0,0,0-2.656H18.328a1.328,1.328,0,0,0,0,2.656Z" transform="translate(4.594 14.766)" fill="#004ac9"/>
    <path id="Path_7549" data-name="Path 7549" d="M15.641,51H10.328A1.328,1.328,0,0,0,9,52.328v5.312a1.328,1.328,0,0,0,1.328,1.328h5.312a1.328,1.328,0,0,0,1.328-1.328V52.328A1.328,1.328,0,0,0,15.641,51Zm-1.328,5.312H11.656V53.656h2.656Z" transform="translate(1.969 16.734)" fill="#004ac9"/>
    <path id="Path_7550" data-name="Path 7550" d="M47.547,51H18.328a1.328,1.328,0,1,0,0,2.656H47.547a1.328,1.328,0,1,0,0-2.656Z" transform="translate(4.594 16.734)" fill="#004ac9"/>
    <path id="Path_7551" data-name="Path 7551" d="M39.578,55H18.328a1.328,1.328,0,0,0,0,2.656h21.25a1.328,1.328,0,0,0,0-2.656Z" transform="translate(4.594 18.047)" fill="#004ac9"/>
    <path id="Path_7552" data-name="Path 7552" d="M80.031,54.453A5.313,5.313,0,0,0,70.963,50.7l-6.869,6.869V14.609c0-.028-.015-.053-.016-.081a1.3,1.3,0,0,0-.072-.353c-.016-.042-.027-.084-.045-.125a1.281,1.281,0,0,0-.252-.376.013.013,0,0,0-.005-.007L50.426.388A1.3,1.3,0,0,0,50.041.13C50,.112,49.96.1,49.919.086a1.35,1.35,0,0,0-.348-.07c-.029,0-.056-.016-.086-.016H6.984A3.989,3.989,0,0,0,3,3.984V81.016A3.989,3.989,0,0,0,6.984,85H60.109a3.989,3.989,0,0,0,3.984-3.984V72.59L78.475,58.209a5.274,5.274,0,0,0,1.557-3.756ZM50.815,4.536l8.744,8.746H52.143a1.329,1.329,0,0,1-1.328-1.328Zm9.294,77.808H6.984a1.329,1.329,0,0,1-1.328-1.328V3.984A1.329,1.329,0,0,1,6.984,2.656H48.159v9.3a3.989,3.989,0,0,0,3.984,3.984h9.294V60.221l-5.084,5.084c-.009.008-.012.021-.02.029a1.281,1.281,0,0,0-.254.382.959.959,0,0,0-.033.1,1.268,1.268,0,0,0-.062.2l-1.167,6.8a1.329,1.329,0,0,0,1.308,1.554,1.282,1.282,0,0,0,.224-.02l5.088-.873v7.533a1.329,1.329,0,0,1-1.328,1.328ZM58.168,69,60.173,71l-2.421.416ZM76.6,56.331,62.926,70,59.17,66.246,63.7,61.711a0,0,0,0,0,0,0l9.136-9.136A2.656,2.656,0,0,1,76.6,56.331Z" transform="translate(0)" fill="#004ac9"/>
  </g>
</svg>
