<svg xmlns="http://www.w3.org/2000/svg" width="26.968" height="17.874" viewBox="0 0 26.968 17.874">
  <g id="_44_Visibility" data-name="44 Visibility" transform="translate(-2.421 -7)">
    <path id="Path_26746" data-name="Path 26746" d="M15.965,20.93c-6.554,0-6.554-9.93,0-9.93C22.444,11,22.724,20.93,15.965,20.93Zm0-7.944c-3.972,0-3.972,5.958,0,5.958S19.937,12.986,15.965,12.986Z" transform="translate(-0.061 -0.028)" fill="#004ac9"/>
    <path id="Path_26747" data-name="Path 26747" d="M15.9,24.874c-4.914,0-9.62-2.611-12.909-7.163a3.022,3.022,0,0,1,0-3.547C6.285,9.611,10.99,7,15.9,7s9.62,2.611,12.909,7.163a3.022,3.022,0,0,1,0,3.547C25.525,22.263,20.819,24.874,15.9,24.874ZM4.6,16.547c2.957,4.089,6.971,6.341,11.3,6.341s8.346-2.252,11.3-6.341a1.04,1.04,0,0,0,0-1.22c-2.957-4.088-6.971-6.34-11.3-6.34S7.559,11.238,4.6,15.327a1.04,1.04,0,0,0,0,1.22Z" transform="translate(0 0)" fill="#004ac9"/>
  </g>
</svg>
