<svg id="location_1_" data-name="location (1)" xmlns="http://www.w3.org/2000/svg" width="24.111" height="24.111" viewBox="0 0 24.111 24.111">
  <path id="Path_27068" data-name="Path 27068" d="M89.255,20.586a22.952,22.952,0,0,0,10.666,0c1.754-.5,2.644-1.213,2.644-2.132s-.89-1.637-2.644-2.132a16.632,16.632,0,0,0-2.776-.5c2.014-3.437,4.009-7.329,4.009-9.254a6.567,6.567,0,0,0-13.133,0c0,1.925,2,5.816,4.009,9.253a16.627,16.627,0,0,0-2.776.5c-1.754.5-2.644,1.213-2.644,2.132S87.5,20.09,89.255,20.586ZM94.588,1.413a5.16,5.16,0,0,1,5.154,5.154c0,1.46-1.806,5.286-4.831,10.236a.378.378,0,0,1-.645,0c-3.025-4.95-4.831-8.776-4.831-10.236A5.16,5.16,0,0,1,94.588,1.413ZM89.9,17.612a17.172,17.172,0,0,1,2.939-.443l.225.37a1.791,1.791,0,0,0,3.056,0l.225-.37a17.172,17.172,0,0,1,2.939.443,3.607,3.607,0,0,1,1.86.841,3.606,3.606,0,0,1-1.86.841,19.823,19.823,0,0,1-4.693.506,19.822,19.822,0,0,1-4.693-.506,3.606,3.606,0,0,1-1.86-.841A3.608,3.608,0,0,1,89.9,17.612Z" transform="translate(-82.532)" fill="#004ac9"/>
  <path id="Path_27069" data-name="Path 27069" d="M22.055,357.2a.706.706,0,0,0-.68,1.238c.841.462,1.324.975,1.324,1.406,0,.527-.747,1.345-2.845,2.058a25.222,25.222,0,0,1-7.8,1.092,25.222,25.222,0,0,1-7.8-1.092c-2.1-.713-2.845-1.53-2.845-2.058,0-.431.483-.944,1.324-1.406a.706.706,0,1,0-.68-1.238C1.118,357.718,0,358.595,0,359.847c0,.959.66,2.327,3.8,3.4a26.651,26.651,0,0,0,8.252,1.167,26.651,26.651,0,0,0,8.252-1.167c3.143-1.068,3.8-2.436,3.8-3.4C24.111,358.595,22.993,357.718,22.055,357.2Z" transform="translate(0 -340.298)" fill="#004ac9"/>
  <path id="Path_27070" data-name="Path 27070" d="M205.232,76.459a2.639,2.639,0,1,0-2.639,2.639A2.642,2.642,0,0,0,205.232,76.459Zm-3.866,0a1.227,1.227,0,1,1,1.227,1.227A1.228,1.228,0,0,1,201.366,76.459Z" transform="translate(-190.537 -70.344)" fill="#004ac9"/>
</svg>
