<svg xmlns="http://www.w3.org/2000/svg" width="17.102" height="16.065" viewBox="0 0 17.102 16.065">
  <g id="XMLID_9_" transform="translate(0 -10)">
    <path id="XMLID_10_" d="M81.326,14.955l2.3-2.3v9.524a.777.777,0,1,0,1.555,0V12.654l2.3,2.3a.777.777,0,0,0,1.1-1.1l-3.627-3.627q-.027-.027-.057-.052l-.026-.02-.035-.025-.033-.02-.032-.019-.034-.016-.035-.016-.034-.012-.038-.013-.034-.009-.04-.01-.039-.006L84.481,10c-.024,0-.048,0-.072,0H84.4q-.036,0-.072,0l-.035.005-.04.006-.039.009-.035.009-.037.013-.035.013-.033.015-.036.017-.031.018-.034.021-.033.024-.028.021c-.019.015-.037.032-.054.049l0,0-3.628,3.628a.777.777,0,0,0,1.1,1.1Z" transform="translate(-75.853)" fill="#fff"/>
    <path id="XMLID_11_" d="M16.324,160a.777.777,0,0,0-.777.777v5.96H1.555v-5.96a.777.777,0,0,0-1.555,0v6.737a.777.777,0,0,0,.777.777H16.324a.777.777,0,0,0,.777-.777v-6.737A.777.777,0,0,0,16.324,160Z" transform="translate(0 -142.227)" fill="#fff"/>
  </g>
</svg>
