<svg id="Group_5605" data-name="Group 5605" xmlns="http://www.w3.org/2000/svg" width="71.646" height="69.5" viewBox="0 0 71.646 69.5">
  <path id="Path_22193" data-name="Path 22193" d="M141.641,223.919h6.293a1.1,1.1,0,0,0,0-2.2h-6.293a1.1,1.1,0,0,0,0,2.2Z" transform="translate(-121.634 -191.697)" fill="#fff"/>
  <path id="Path_22194" data-name="Path 22194" d="M141.641,260.267H167.2a1.1,1.1,0,0,0,0-2.2H141.641a1.1,1.1,0,0,0,0,2.2Z" transform="translate(-121.634 -223.124)" fill="#fff"/>
  <path id="Path_22195" data-name="Path 22195" d="M276.412,294.417H269.6a1.1,1.1,0,0,0,0,2.2h6.813a1.1,1.1,0,0,0,0-2.2Z" transform="translate(-230.846 -254.548)" fill="#fff"/>
  <path id="Path_22196" data-name="Path 22196" d="M81.677,6.835,67.456.25a2.759,2.759,0,0,0-2.292,0L50.943,6.835h0A2.351,2.351,0,0,0,49.526,8.96v1.895H34.087a1.021,1.021,0,1,0,0,2.036H49.526v3.1a24.076,24.076,0,0,0,.361,4.242H31.457a1.021,1.021,0,1,0,0,2.036h18.9a18.957,18.957,0,0,0,1.092,2.9H31.457a1.021,1.021,0,1,0,0,2.036H52.572a19.972,19.972,0,0,0,1.269,1.774q.455.568.963,1.123H42.144a1.021,1.021,0,1,0,0,2.036H56.9a48.961,48.961,0,0,0,8.07,5.5,2.732,2.732,0,0,0,2.681,0l.333-.19V62.168H39.239v-1.9a1.1,1.1,0,0,0-2.2,0v6.855a.354.354,0,0,1-.366.339H14.011a.354.354,0,0,1-.366-.339V52.461a.354.354,0,0,1,.366-.339H36.676a.354.354,0,0,1,.366.339v3.058a1.1,1.1,0,0,0,2.2,0V52.461a2.2,2.2,0,0,0-.084-.592H57.014a1.021,1.021,0,1,0,0-2.036H35.709v-2.9H57.014a1.021,1.021,0,1,0,0-2.036H35.663a8.971,8.971,0,0,0-.795-2.9H46.246a1.021,1.021,0,1,0,0-2.036H33.58a10.652,10.652,0,0,0-8.236-3.783,10.953,10.953,0,0,0-4.857,1.123V12.891H28.96a1.021,1.021,0,1,0,0-2.036h-8.84a1.77,1.77,0,0,0-1.831,1.7V38.758a9.272,9.272,0,0,0-3.311,7.029v4.3h-.967a2.478,2.478,0,0,0-2.563,2.375V67.124A2.478,2.478,0,0,0,14.011,69.5H36.676a2.478,2.478,0,0,0,2.563-2.375V64.2H68.35a1.77,1.77,0,0,0,1.831-1.7V36.137a32.708,32.708,0,0,0,8.6-7.163,19.962,19.962,0,0,0,4.315-12.987V8.96a2.351,2.351,0,0,0-1.417-2.125ZM29.117,50.085H21.57v-4.3a3.647,3.647,0,0,1,3.774-3.5,3.647,3.647,0,0,1,3.774,3.5v4.3Zm-11.942-4.3c0-4.174,3.664-7.569,8.168-7.569s8.168,3.4,8.168,7.569v4.3h-2.2v-4.3a5.771,5.771,0,0,0-5.971-5.533,5.771,5.771,0,0,0-5.971,5.533v4.3h-2.2ZM80.9,15.987C80.9,25.771,75.39,30.859,66.5,35.9a.4.4,0,0,1-.388,0C57.23,30.859,51.723,25.771,51.723,15.987V8.96a.336.336,0,0,1,.2-.3L66.146,2.071a.394.394,0,0,1,.327,0l14.22,6.586a.336.336,0,0,1,.2.3v7.027Z" transform="translate(-11.448 0)" fill="#fff"/>
  <path id="Path_22197" data-name="Path 22197" d="M320.744,52.13a11.118,11.118,0,1,0,10.473,14.85,1.1,1.1,0,0,0-2.07-.738,8.924,8.924,0,1,1,.376-4.566,1.1,1.1,0,1,0,2.163-.384,11.1,11.1,0,0,0-10.943-9.162Z" transform="translate(-265.948 -44.494)" fill="#fff"/>
  <path id="Path_22198" data-name="Path 22198" d="M360.721,105.628l-4.329,4.329-2.517-2.517a1.1,1.1,0,1,0-1.554,1.554l3.294,3.294a1.1,1.1,0,0,0,1.554,0l5.106-5.106a1.1,1.1,0,0,0-1.554-1.554Z" transform="translate(-302.114 -91.134)" fill="#fff"/>
</svg>
