<svg xmlns="http://www.w3.org/2000/svg" xmlns:xlink="http://www.w3.org/1999/xlink" width="90" height="90" viewBox="0 0 90 90">
  <defs>
    <clipPath id="clip-Artboard_3">
      <rect width="90" height="90"/>
    </clipPath>
  </defs>
  <g id="Artboard_3" data-name="Artboard – 3" clip-path="url(#clip-Artboard_3)">
    <g id="telephone" transform="translate(0 -9.132)">
      <g id="Group_11" data-name="Group 11" transform="translate(0 11.08)">
        <g id="Group_10" data-name="Group 10" transform="translate(0 0)">
          <path id="Path_177" data-name="Path 177" d="M88.682,76.675a1.318,1.318,0,0,0-1.318,1.318v7.724a2.2,2.2,0,0,1-2.2,2.2H36.029V20.2H59.6a1.318,1.318,0,0,0,0-2.637H36.029v-.218A6.276,6.276,0,0,0,29.76,11.08H13.866A6.276,6.276,0,0,0,7.6,17.349v.218H4.836A4.841,4.841,0,0,0,0,22.4V85.717a4.841,4.841,0,0,0,4.836,4.836H7.6v.364a6.276,6.276,0,0,0,6.269,6.269H29.76a6.276,6.276,0,0,0,6.269-6.269v-.364H85.164A4.841,4.841,0,0,0,90,85.717V77.993A1.318,1.318,0,0,0,88.682,76.675Zm-55.29-57.8s0,.009,0,.014,0,.009,0,.014V89.22s0,.009,0,.014,0,.009,0,.014v1.669a3.636,3.636,0,0,1-3.632,3.632H13.866a3.636,3.636,0,0,1-3.632-3.632V89.237s0,0,0,0,0,0,0,0V73.058a1.318,1.318,0,1,0-2.637,0V87.916H4.836a2.2,2.2,0,0,1-2.2-2.2V22.4a2.2,2.2,0,0,1,2.2-2.2H7.6V67.384a1.318,1.318,0,1,0,2.637,0v-48.5s0,0,0,0,0,0,0,0V17.349a3.636,3.636,0,0,1,3.632-3.632H29.76a3.636,3.636,0,0,1,3.632,3.632Z" transform="translate(0 -11.08)" fill="#2e008b"/>
        </g>
      </g>
      <g id="Group_13" data-name="Group 13" transform="translate(62.359 17.974)">
        <g id="Group_12" data-name="Group 12">
          <path id="Path_178" data-name="Path 178" d="M386.545,47.985h-21.1a1.4,1.4,0,1,0,0,2.8h21.1a2.34,2.34,0,0,1,2.337,2.337v53.15a1.4,1.4,0,1,0,2.8,0V53.124A5.145,5.145,0,0,0,386.545,47.985Z" transform="translate(-364.044 -47.985)" fill="#2e008b"/>
        </g>
      </g>
      <g id="Group_15" data-name="Group 15" transform="translate(20.523 30.651)">
        <g id="Group_14" data-name="Group 14">
          <path id="Path_179" data-name="Path 179" d="M118.374,131.531a1.4,1.4,0,0,0-1.4,1.4v47.21a1.4,1.4,0,1,0,2.8,0v-47.21A1.4,1.4,0,0,0,118.374,131.531Z" transform="translate(-116.973 -131.531)" fill="#2e008b"/>
        </g>
      </g>
      <g id="Group_17" data-name="Group 17" transform="translate(39.1 26.859)">
        <g id="Group_16" data-name="Group 16">
          <path id="Path_180" data-name="Path 180" d="M281.816,101.8H240.939a1.4,1.4,0,0,0-1.4,1.4v10.308a1.4,1.4,0,0,0,1.4,1.4h40.876a1.4,1.4,0,0,0,1.4-1.4V103.2A1.4,1.4,0,0,0,281.816,101.8Zm-1.4,10.308H242.34V104.6h38.074Z" transform="translate(-239.538 -101.798)" fill="#0473c0"/>
        </g>
      </g>
      <g id="Group_19" data-name="Group 19" transform="translate(45.558 42.819)">
        <g id="Group_18" data-name="Group 18">
          <path id="Path_181" data-name="Path 181" d="M265.851,192.99a4.833,4.833,0,1,0,4.833,4.833A4.839,4.839,0,0,0,265.851,192.99Zm0,6.864a2.031,2.031,0,1,1,2.031-2.031A2.033,2.033,0,0,1,265.851,199.854Z" transform="translate(-261.018 -192.99)" fill="#2e008b"/>
        </g>
      </g>
      <g id="Group_21" data-name="Group 21" transform="translate(57.346 42.819)">
        <g id="Group_20" data-name="Group 20">
          <path id="Path_182" data-name="Path 182" d="M333.389,192.99a4.833,4.833,0,1,0,4.833,4.833A4.839,4.839,0,0,0,333.389,192.99Zm0,6.864a2.031,2.031,0,1,1,2.031-2.031A2.033,2.033,0,0,1,333.389,199.854Z" transform="translate(-328.556 -192.99)" fill="#2e008b"/>
        </g>
      </g>
      <g id="Group_23" data-name="Group 23" transform="translate(68.347 42.819)">
        <g id="Group_22" data-name="Group 22">
          <path id="Path_183" data-name="Path 183" d="M400.926,192.99a4.833,4.833,0,1,0,4.833,4.833A4.839,4.839,0,0,0,400.926,192.99Zm0,6.864a2.031,2.031,0,1,1,2.031-2.031A2.033,2.033,0,0,1,400.926,199.854Z" transform="translate(-396.093 -192.99)" fill="#2e008b"/>
        </g>
      </g>
      <g id="Group_25" data-name="Group 25" transform="translate(45.558 52.949)">
        <g id="Group_24" data-name="Group 24">
          <path id="Path_184" data-name="Path 184" d="M265.851,251.05a4.833,4.833,0,1,0,4.833,4.833A4.839,4.839,0,0,0,265.851,251.05Zm0,6.864a2.031,2.031,0,1,1,2.031-2.031A2.033,2.033,0,0,1,265.851,257.914Z" transform="translate(-261.018 -251.05)" fill="#2e008b"/>
        </g>
      </g>
      <g id="Group_27" data-name="Group 27" transform="translate(57.346 52.949)">
        <g id="Group_26" data-name="Group 26">
          <path id="Path_185" data-name="Path 185" d="M333.389,251.05a4.833,4.833,0,1,0,4.833,4.833A4.839,4.839,0,0,0,333.389,251.05Zm0,6.864a2.031,2.031,0,1,1,2.031-2.031A2.033,2.033,0,0,1,333.389,257.914Z" transform="translate(-328.556 -251.05)" fill="#2e008b"/>
        </g>
      </g>
      <g id="Group_29" data-name="Group 29" transform="translate(68.347 52.949)">
        <g id="Group_28" data-name="Group 28">
          <path id="Path_186" data-name="Path 186" d="M400.926,251.05a4.833,4.833,0,1,0,4.833,4.833A4.839,4.839,0,0,0,400.926,251.05Zm0,6.864a2.031,2.031,0,1,1,2.031-2.031A2.033,2.033,0,0,1,400.926,257.914Z" transform="translate(-396.093 -251.05)" fill="#2e008b"/>
        </g>
      </g>
      <g id="Group_31" data-name="Group 31" transform="translate(45.558 63.079)">
        <g id="Group_30" data-name="Group 30">
          <path id="Path_187" data-name="Path 187" d="M265.851,309.109a4.833,4.833,0,1,0,4.833,4.833A4.839,4.839,0,0,0,265.851,309.109Zm0,6.865a2.031,2.031,0,1,1,2.031-2.031A2.033,2.033,0,0,1,265.851,315.974Z" transform="translate(-261.018 -309.109)" fill="#2e008b"/>
        </g>
      </g>
      <g id="Group_33" data-name="Group 33" transform="translate(57.346 63.079)">
        <g id="Group_32" data-name="Group 32">
          <path id="Path_188" data-name="Path 188" d="M333.389,309.109a4.833,4.833,0,1,0,4.833,4.833A4.839,4.839,0,0,0,333.389,309.109Zm0,6.865a2.031,2.031,0,1,1,2.031-2.031A2.033,2.033,0,0,1,333.389,315.974Z" transform="translate(-328.556 -309.109)" fill="#2e008b"/>
        </g>
      </g>
      <g id="Group_35" data-name="Group 35" transform="translate(68.347 63.079)">
        <g id="Group_34" data-name="Group 34">
          <path id="Path_189" data-name="Path 189" d="M400.926,309.109a4.833,4.833,0,1,0,4.833,4.833A4.839,4.839,0,0,0,400.926,309.109Zm0,6.865a2.031,2.031,0,1,1,2.031-2.031A2.033,2.033,0,0,1,400.926,315.974Z" transform="translate(-396.093 -309.109)" fill="#2e008b"/>
        </g>
      </g>
      <g id="Group_37" data-name="Group 37" transform="translate(45.558 73.258)">
        <g id="Group_36" data-name="Group 36">
          <path id="Path_190" data-name="Path 190" d="M265.851,367.448a4.833,4.833,0,1,0,4.833,4.833A4.839,4.839,0,0,0,265.851,367.448Zm0,6.864a2.031,2.031,0,1,1,2.031-2.031A2.033,2.033,0,0,1,265.851,374.312Z" transform="translate(-261.018 -367.448)" fill="#2e008b"/>
        </g>
      </g>
      <g id="Group_39" data-name="Group 39" transform="translate(57.346 73.258)">
        <g id="Group_38" data-name="Group 38">
          <path id="Path_191" data-name="Path 191" d="M333.389,367.448a4.833,4.833,0,1,0,4.833,4.833A4.839,4.839,0,0,0,333.389,367.448Zm0,6.864a2.031,2.031,0,1,1,2.031-2.031A2.033,2.033,0,0,1,333.389,374.312Z" transform="translate(-328.556 -367.448)" fill="#2e008b"/>
        </g>
      </g>
      <g id="Group_41" data-name="Group 41" transform="translate(68.347 73.258)">
        <g id="Group_40" data-name="Group 40">
          <path id="Path_192" data-name="Path 192" d="M400.926,367.448a4.833,4.833,0,1,0,4.833,4.833A4.839,4.839,0,0,0,400.926,367.448Zm0,6.864a2.031,2.031,0,1,1,2.031-2.031A2.033,2.033,0,0,1,400.926,374.312Z" transform="translate(-396.093 -367.448)" fill="#2e008b"/>
        </g>
      </g>
    </g>
  </g>
</svg>
