<svg xmlns="http://www.w3.org/2000/svg" width="31.5" height="31.5" viewBox="0 0 31.5 31.5">
  <path id="Icon_metro-instagram" data-name="Icon metro-instagram" d="M28.841,1.928H7.8A5.245,5.245,0,0,0,2.571,7.158V28.2A5.245,5.245,0,0,0,7.8,33.428H28.841A5.245,5.245,0,0,0,34.071,28.2V7.158a5.245,5.245,0,0,0-5.229-5.229ZM12.654,15.709H23.987a6,6,0,1,1-11.333,0Zm17.479,0V27.522a1.975,1.975,0,0,1-1.969,1.969H8.477a1.975,1.975,0,0,1-1.969-1.969V15.709H9.588a8.952,8.952,0,1,0,17.466,0l3.079,0Zm0-6.892a.987.987,0,0,1-.984.984H27.18a.987.987,0,0,1-.984-.984V6.85a.987.987,0,0,1,.984-.984h1.969a.987.987,0,0,1,.984.984Z" transform="translate(-2.571 -1.928)" fill="#2e008e"/>
</svg>
