<svg xmlns="http://www.w3.org/2000/svg" width="44" height="44" viewBox="0 0 44 44">
  <g id="youtube" transform="translate(0 0)">
    <path id="Exclusion_24" data-name="Exclusion 24" d="M-2357-2479a21.855,21.855,0,0,1-15.556-6.444A21.857,21.857,0,0,1-2379-2501a21.854,21.854,0,0,1,6.444-15.556A21.854,21.854,0,0,1-2357-2523a21.857,21.857,0,0,1,15.557,6.444A21.855,21.855,0,0,1-2335-2501a21.857,21.857,0,0,1-6.444,15.557A21.857,21.857,0,0,1-2357-2479Zm-6.825-24.231a3.433,3.433,0,0,0-3.524,3.324v7.623a3.433,3.433,0,0,0,3.524,3.325h14.489a3.433,3.433,0,0,0,3.524-3.325v-7.623a3.433,3.433,0,0,0-3.524-3.324Zm6.925-9.051a1.781,1.781,0,0,0-1.132.349,1.785,1.785,0,0,0-.613.922,5.934,5.934,0,0,0-.17,1.6v1.88a7.677,7.677,0,0,0,.094,1.4,2.18,2.18,0,0,0,.313.8,1.33,1.33,0,0,0,.616.492,2.493,2.493,0,0,0,.965.163,2.032,2.032,0,0,0,.905-.191,1.569,1.569,0,0,0,.643-.59,2.314,2.314,0,0,0,.329-.862,9.924,9.924,0,0,0,.077-1.451v-1.8a5.952,5.952,0,0,0-.084-1.162,2.323,2.323,0,0,0-.31-.74,1.66,1.66,0,0,0-.64-.582A2.088,2.088,0,0,0-2356.9-2512.282Zm-7.21-2.523h0l1.979,4.677,0,5.441h1.576v-5.445l1.861-4.665h-1.723l-.989,3.466-1-3.475Zm10.181,2.8v4.788c0,.585.01,1.008.029,1.223a2.079,2.079,0,0,0,.144.591,1.013,1.013,0,0,0,.36.455,1.046,1.046,0,0,0,.613.17.957.957,0,0,0,.573-.179,1.372,1.372,0,0,0,.42-.537l-.029.588h1.67v-7.1h-1.314v5.525a.547.547,0,0,1-.548.544.546.546,0,0,1-.547-.544v-5.525Zm4.116,20.628c-.98,0-1.969-.763-1.969-2.468v-2.128a4.775,4.775,0,0,1,.191-1.508,1.691,1.691,0,0,1,.629-.847,2.135,2.135,0,0,1,1.226-.363,1.531,1.531,0,0,1,1.66,1.191,14.668,14.668,0,0,1,.076,1.818v.968h-2.571v1.649a.612.612,0,0,0,.615.608h.22a.612.612,0,0,0,.614-.608v-.626c0-.017,0-.034,0-.051v-.02c0-.029,0-.057,0-.082l1.123-.006a2.155,2.155,0,0,1-.414,1.829A1.83,1.83,0,0,1-2349.814-2491.379Zm-.062-6.01a.668.668,0,0,0-.668.666l-.007.823h1.419l.016-.823a.669.669,0,0,0-.67-.666Zm-10.458,5.993a1.054,1.054,0,0,1-.63-.183,1.166,1.166,0,0,1-.373-.956l0-.023c0-.042-.006-.083-.01-.124-.013-.142-.01-.387-.008-.726v-.063c0-.171,0-.362,0-.569l-.005-4.249h1.49l.006,4.316c0,.222,0,.409-.008.567a2.2,2.2,0,0,0,.013.481c.1.3.26.364.377.364a.619.619,0,0,0,.5-.4,1.7,1.7,0,0,0,.013-.443c0-.147-.01-.347-.01-.6v-4.288h1.5v6.831l-1.2,0,0-.885A1.977,1.977,0,0,1-2360.334-2491.4Zm6.462-.013a2.168,2.168,0,0,1-1.372-.7l-.112.57-1.23.019.007-9.157,1.5,0-.007,2.653a2.031,2.031,0,0,1,1.21-.513c.711,0,1.19.638,1.191,1.587l0,3.568a2.39,2.39,0,0,1-.516,1.688A.919.919,0,0,1-2353.872-2491.409Zm-.582-6.257a.6.6,0,0,0-.653.538v4.008a.6.6,0,0,0,.653.537.606.606,0,0,0,.656-.537v-4.008A.607.607,0,0,0-2354.453-2497.666Zm-8.407,6.209h-1.5v-8.052l-1.495-.005v-1.169l4.788.008v1.19h-1.8v8.028Zm6.015-14.407a.7.7,0,0,1-.664-.73v-3.78a.7.7,0,0,1,.664-.73.7.7,0,0,1,.663.73v3.78A.7.7,0,0,1-2356.845-2505.864Z" transform="translate(2379 2523)" fill="#fff"/>
  </g>
</svg>
