<svg xmlns="http://www.w3.org/2000/svg" width="44" height="43.999" viewBox="0 0 44 43.999">
  <path id="Subtraction_1" data-name="Subtraction 1" d="M-2097.5,44.5a21.858,21.858,0,0,1-15.557-6.444A21.855,21.855,0,0,1-2119.5,22.5a21.855,21.855,0,0,1,6.444-15.556A21.858,21.858,0,0,1-2097.5.5a21.855,21.855,0,0,1,15.556,6.444A21.855,21.855,0,0,1-2075.5,22.5a21.855,21.855,0,0,1-6.444,15.556A21.855,21.855,0,0,1-2097.5,44.5Zm-13.174-12.485h0a16.46,16.46,0,0,0,8.921,2.607,16.372,16.372,0,0,0,16.532-16.531c0-.248,0-.5-.018-.756a12.407,12.407,0,0,0,2.913-3,11.6,11.6,0,0,1-3.345.9,5.791,5.791,0,0,0,2.554-3.2,11.512,11.512,0,0,1-3.688,1.4,5.832,5.832,0,0,0-4.244-1.835,5.817,5.817,0,0,0-5.81,5.81,6.549,6.549,0,0,0,.144,1.331,16.555,16.555,0,0,1-11.981-6.08,5.746,5.746,0,0,0-.791,2.932,5.8,5.8,0,0,0,2.59,4.839,5.861,5.861,0,0,1-2.626-.738v.072a5.834,5.834,0,0,0,4.658,5.7,6.169,6.169,0,0,1-1.528.2,7.284,7.284,0,0,1-1.1-.09,5.824,5.824,0,0,0,5.433,4.029,11.58,11.58,0,0,1-7.213,2.483A11.87,11.87,0,0,1-2110.674,32.015Z" transform="translate(2119.5 -0.5)" fill="#fff"/>
</svg>
