<svg id="instagram" xmlns="http://www.w3.org/2000/svg" width="43.999" height="43.999" viewBox="0 0 43.999 43.999">
  <path id="Path_1213" data-name="Path 1213" d="M215.422,211.211A4.211,4.211,0,1,1,211.211,207,4.211,4.211,0,0,1,215.422,211.211Zm0,0" transform="translate(-189.211 -189.211)" fill="#fff"/>
  <path id="Path_1214" data-name="Path 1214" d="M155.689,138.395a4.183,4.183,0,0,0-2.4-2.4,6.989,6.989,0,0,0-2.345-.435c-1.332-.061-1.732-.074-5.1-.074s-3.773.013-5.1.074a6.993,6.993,0,0,0-2.345.435,4.185,4.185,0,0,0-2.4,2.4,6.992,6.992,0,0,0-.435,2.346c-.061,1.332-.074,1.731-.074,5.1s.013,3.772.074,5.1a6.99,6.99,0,0,0,.435,2.345,4.183,4.183,0,0,0,2.4,2.4,6.981,6.981,0,0,0,2.346.435c1.332.061,1.731.074,5.1.074s3.773-.013,5.1-.074a6.981,6.981,0,0,0,2.346-.435,4.183,4.183,0,0,0,2.4-2.4,7,7,0,0,0,.435-2.345c.061-1.332.074-1.732.074-5.1s-.013-3.773-.074-5.1A6.981,6.981,0,0,0,155.689,138.395Zm-9.848,13.937a6.487,6.487,0,1,1,6.487-6.487A6.487,6.487,0,0,1,145.841,152.332Zm6.743-11.714A1.516,1.516,0,1,1,154.1,139.1,1.516,1.516,0,0,1,152.585,140.618Zm0,0" transform="translate(-123.842 -123.845)" fill="#fff"/>
  <path id="Path_1215" data-name="Path 1215" d="M22,0A22,22,0,1,0,44,22,22,22,0,0,0,22,0ZM34.556,27.208a9.268,9.268,0,0,1-.587,3.066,6.459,6.459,0,0,1-3.695,3.695,9.275,9.275,0,0,1-3.066.587c-1.347.061-1.777.076-5.208.076s-3.861-.015-5.209-.076a9.275,9.275,0,0,1-3.066-.587,6.459,6.459,0,0,1-3.695-3.695,9.266,9.266,0,0,1-.587-3.066C9.381,25.861,9.367,25.43,9.367,22s.014-3.861.076-5.208a9.269,9.269,0,0,1,.587-3.066,6.464,6.464,0,0,1,3.695-3.695,9.277,9.277,0,0,1,3.066-.587c1.347-.061,1.777-.076,5.208-.076s3.861.015,5.208.077a9.279,9.279,0,0,1,3.066.586,6.461,6.461,0,0,1,3.695,3.695,9.267,9.267,0,0,1,.587,3.066c.061,1.347.076,1.777.076,5.208S34.618,25.861,34.556,27.208Zm0,0" fill="#fff"/>
</svg>
