<svg xmlns="http://www.w3.org/2000/svg" width="44" height="43.999" viewBox="0 0 44 43.999">
  <path id="Subtraction_3" data-name="Subtraction 3" d="M-2097.5,44.5a21.858,21.858,0,0,1-15.557-6.444A21.855,21.855,0,0,1-2119.5,22.5a21.855,21.855,0,0,1,6.444-15.556A21.858,21.858,0,0,1-2097.5.5a21.855,21.855,0,0,1,15.556,6.444A21.855,21.855,0,0,1-2075.5,22.5a21.855,21.855,0,0,1-6.444,15.556A21.855,21.855,0,0,1-2097.5,44.5Zm-.407-36.1a17.743,17.743,0,0,0-11.021,3.618,11.15,11.15,0,0,0-4.565,8.734,11.005,11.005,0,0,0,3.9,8.176A17.112,17.112,0,0,0-2099.96,33a.843.843,0,0,1,.569.31.835.835,0,0,1,.183.625l-.325,2.916a.827.827,0,0,0,.208.654.856.856,0,0,0,.636.285.854.854,0,0,0,.371-.085c5.608-2.7,9.853-5.745,12.616-9.06.425-.51,1.794-2.425,2.065-2.913a10.362,10.362,0,0,0,1.191-3.4,7.633,7.633,0,0,0,.123-.939,11.722,11.722,0,0,0-.014-1.207,11.366,11.366,0,0,0-4.79-8.348A17.868,17.868,0,0,0-2097.906,8.4Zm9.566,16.443h-3.189a.8.8,0,0,1-.8-.795v-6a.8.8,0,0,1,.8-.795h3.189a.8.8,0,0,1,.8.795.8.8,0,0,1-.8.794h-2.391v1.41h2.391a.8.8,0,0,1,.8.794.8.8,0,0,1-.8.795h-2.391v1.409h2.391a.8.8,0,0,1,.8.795A.8.8,0,0,1-2088.34,24.847Zm-13.219,0h-.349a.623.623,0,0,1-.623-.621V17.882a.623.623,0,0,1,.623-.621h.349a.623.623,0,0,1,.623.621v6.344A.623.623,0,0,1-2101.56,24.847Zm-2.526,0h-3.19a.8.8,0,0,1-.8-.795v-6a.8.8,0,0,1,.8-.795.8.8,0,0,1,.8.795v5.2h2.391a.8.8,0,0,1,.8.795A.8.8,0,0,1-2104.086,24.847Zm9.766,0h-.006a.794.794,0,0,1-.54-.217c-.039-.036-2.193-2.817-3-3.863l-.065-.085-.208-.269,0,3.64a.8.8,0,0,1-.8.794.8.8,0,0,1-.8-.794V18.087a.818.818,0,0,1,.766-.825h.032a.792.792,0,0,1,.592.265c.034.037,1.631,2.111,2.965,3.844l.269.349V18.056a.8.8,0,0,1,.8-.795.8.8,0,0,1,.8.795v5.963A.824.824,0,0,1-2094.32,24.846Z" transform="translate(2119.5 -0.5)" fill="#fff"/>
</svg>
