<svg xmlns="http://www.w3.org/2000/svg" width="44" height="44" viewBox="0 0 44 44">
  <path id="Exclusion_23" data-name="Exclusion 23" d="M-1660,485a21.857,21.857,0,0,1-15.557-6.444A21.857,21.857,0,0,1-1682,463a21.855,21.855,0,0,1,6.444-15.556A21.857,21.857,0,0,1-1660,441a21.856,21.856,0,0,1,15.556,6.444A21.856,21.856,0,0,1-1638,463a21.857,21.857,0,0,1-6.443,15.557A21.856,21.856,0,0,1-1660,485Zm-5.1-34a19.048,19.048,0,0,0-2.337.182,1.146,1.146,0,0,0-1.044.723c-.232.64.188,1.093.718,1.667a4.332,4.332,0,0,1,1.333,2.374,15.463,15.463,0,0,0-3.917,4.621,13.52,13.52,0,0,0-1.138,9.376,6.865,6.865,0,0,0-2.507,4.69.874.874,0,0,0,.207.706.9.9,0,0,0,.675.311.888.888,0,0,0,.4-.1l4.051-2.026,3.162,1.58a.882.882,0,0,0,.4.095.894.894,0,0,0,.882-.766c.357-2.519-.374-4.089-2.3-4.943a.906.906,0,0,0-.316-.075c-.138-.007-.284-.25-.375-.475a4.756,4.756,0,0,1,.092-3.369.928.928,0,0,0,.069-.084,9.894,9.894,0,0,1,5.1-3.446,5.084,5.084,0,0,1-1.111,1.849.875.875,0,0,0-.192.969.875.875,0,0,0,.821.55,5.893,5.893,0,0,0,5.814-3.588,27.9,27.9,0,0,1,7.535-1.306h1.57a1.974,1.974,0,0,0,1.407-.583,1.969,1.969,0,0,0,.557-1.727,1.966,1.966,0,0,0-1.074-1.46l-.845-.422a5.718,5.718,0,0,0-3.558-3.326,19,19,0,0,0-6.067-1.122,12.767,12.767,0,0,0-3.917.593A5.941,5.941,0,0,0-1665.1,451Z" transform="translate(1682 -441)" fill="#fff"/>
</svg>
