<svg xmlns="http://www.w3.org/2000/svg" width="31.5" height="31.5" viewBox="0 0 31.5 31.5">
  <path id="Icon_awesome-line" data-name="Icon awesome-line" d="M19.132,14.358v5a.222.222,0,0,1-.225.225h-.8a.233.233,0,0,1-.183-.091L15.63,16.4v2.967a.222.222,0,0,1-.225.225h-.8a.222.222,0,0,1-.225-.225v-5a.222.222,0,0,1,.225-.225H15.4a.212.212,0,0,1,.183.1l2.292,3.094V14.365a.222.222,0,0,1,.225-.225h.8a.222.222,0,0,1,.232.218Zm-5.766-.225h-.8a.222.222,0,0,0-.225.225v5a.222.222,0,0,0,.225.225h.8a.222.222,0,0,0,.225-.225v-5a.227.227,0,0,0-.225-.225Zm-1.934,4.191H9.246V14.358a.222.222,0,0,0-.225-.225h-.8a.222.222,0,0,0-.225.225v5a.207.207,0,0,0,.063.155.237.237,0,0,0,.155.063h3.213a.222.222,0,0,0,.225-.225v-.8a.225.225,0,0,0-.218-.225Zm11.918-4.191H20.137a.227.227,0,0,0-.225.225v5a.227.227,0,0,0,.225.225h3.213a.222.222,0,0,0,.225-.225v-.8a.222.222,0,0,0-.225-.225H21.164v-.844h2.187a.222.222,0,0,0,.225-.225v-.809a.222.222,0,0,0-.225-.225H21.164v-.844h2.187a.222.222,0,0,0,.225-.225v-.8a.236.236,0,0,0-.225-.225ZM31.5,7.995v20.06a5.727,5.727,0,0,1-5.745,5.7H5.7A5.732,5.732,0,0,1,0,28.005V7.945a5.732,5.732,0,0,1,5.745-5.7H25.8A5.727,5.727,0,0,1,31.5,7.995Zm-4.331,8.62c0-5.133-5.147-9.309-11.468-9.309S4.233,11.482,4.233,16.615c0,4.6,4.078,8.452,9.591,9.183,1.343.288,1.188.78.886,2.587-.049.288-.232,1.132.991.619a37.061,37.061,0,0,0,9.014-6.659A8.307,8.307,0,0,0,27.169,16.615Z" transform="translate(0 -2.25)" fill="#2e008e"/>
</svg>
