<svg xmlns="http://www.w3.org/2000/svg" width="31.5" height="31.5" viewBox="0 0 31.5 31.5">
  <path id="Icon_awesome-youtube-square" data-name="Icon awesome-youtube-square" d="M13.134,14.21l6.694,3.8-6.694,3.8ZM31.5,5.625v24.75a3.376,3.376,0,0,1-3.375,3.375H3.375A3.376,3.376,0,0,1,0,30.375V5.625A3.376,3.376,0,0,1,3.375,2.25h24.75A3.376,3.376,0,0,1,31.5,5.625Zm-2.953,12.4a33.786,33.786,0,0,0-.534-6.2,3.209,3.209,0,0,0-2.264-2.278C23.759,9,15.75,9,15.75,9s-8.009,0-10,.541A3.209,3.209,0,0,0,3.487,11.82a33.744,33.744,0,0,0-.534,6.2,33.786,33.786,0,0,0,.534,6.2,3.163,3.163,0,0,0,2.264,2.243c1.99.534,10,.534,10,.534s8.009,0,10-.541a3.163,3.163,0,0,0,2.264-2.243,33.682,33.682,0,0,0,.534-6.195Z" transform="translate(0 -2.25)" fill="#2e008e"/>
</svg>
