<svg xmlns="http://www.w3.org/2000/svg" xmlns:xlink="http://www.w3.org/1999/xlink" width="79" height="100" viewBox="0 0 79 100">
  <defs>
    <clipPath id="clip-Artboard_4">
      <rect width="79" height="100"/>
    </clipPath>
  </defs>
  <g id="Artboard_4" data-name="Artboard – 4" clip-path="url(#clip-Artboard_4)">
    <g id="Group_252" data-name="Group 252" transform="translate(-1110.5 -101.011)">
      <path id="XMLID_426_" d="M108.424,123.112l-47.477.112L13.47,123h-.023C7.065,123,2,128.814,2,136.087v60.925C2,204.286,7.065,210.1,13.447,210.1h95.046c6.383,0,11.447-5.814,11.447-13.087V136.087C119.94,128.814,114.922,123.112,108.424,123.112Zm-3.723,8.979L62.288,169.738l-.162.135-.139.157a1.925,1.925,0,0,1-1.434.606,1.848,1.848,0,0,1-1.411-.651L59,169.828,18.465,131.912l42.482.269Zm3.793,69.029H13.447c-.809,0-2.2-1.482-2.2-4.108V137.524l41.071,38.522a11.3,11.3,0,0,0,8.14,3.592H60.6a11.2,11.2,0,0,0,8.048-3.39l42.089-37.4v58.164C110.69,199.639,109.3,201.121,108.493,201.121Z" transform="translate(1064 -15.54)" fill="#fff"/>
    </g>
  </g>
</svg>
