<svg xmlns="http://www.w3.org/2000/svg" xmlns:xlink="http://www.w3.org/1999/xlink" width="90" height="90" viewBox="0 0 90 90">
  <defs>
    <clipPath id="clip-Artboard_2">
      <rect width="90" height="90"/>
    </clipPath>
  </defs>
  <g id="Artboard_2" data-name="Artboard – 2" clip-path="url(#clip-Artboard_2)">
    <g id="Manufacturing-Communicate-Internet_of_Things-App-Smartphone" data-name="Manufacturing-Communicate-Internet of Things-App-Smartphone" transform="translate(-2 -1)">
      <path id="Path_132" data-name="Path 132" d="M10.464,44.2l2.121,2.121a4.5,4.5,0,0,1,6.366,0L21.072,44.2a7.512,7.512,0,0,0-10.608,0Z" transform="translate(4.232 18.968)" fill="#0473c0"/>
      <path id="Path_133" data-name="Path 133" d="M9.757,44.073a10.514,10.514,0,0,1,14.85,0l2.121-2.121a13.513,13.513,0,0,0-19.092,0Z" transform="translate(2.818 17.052)" fill="#0473c0"/>
      <path id="Path_134" data-name="Path 134" d="M12.586,46.879,14.707,49l2.121-2.121A3,3,0,0,0,12.586,46.879Z" transform="translate(5.02 20.881)" fill="#0473c0"/>
      <path id="Path_135" data-name="Path 135" d="M13,56h3v3H13Z" transform="translate(5.22 25.525)" fill="#2e008b"/>
      <path id="Path_136" data-name="Path 136" d="M90.525,78.721H82.587L75.608,64.779a1.441,1.441,0,0,0-1.313-.811H63.8a10.284,10.284,0,0,0,3.113-7.377,9.884,9.884,0,0,0-.339-2.567L83.266,25.134A10.328,10.328,0,1,0,72.982,7.9h-34.1A1.475,1.475,0,0,0,37.41,9.377v1.475H33.677A13.265,13.265,0,0,0,21.18,2H18.23a1.475,1.475,0,0,0-1.475,1.475v5.9a1.475,1.475,0,0,0,1.475,1.475H21.18a4.426,4.426,0,1,1,0,8.852H18.23a1.475,1.475,0,0,0-1.475,1.475v5.9a1.475,1.475,0,0,0,1.475,1.475H21.18a13.265,13.265,0,0,0,12.5-8.852H37.41V21.18a1.475,1.475,0,0,0,1.475,1.475h28.8L53.816,46.646a10.313,10.313,0,0,0-4.441,17.321H38.885a1.441,1.441,0,0,0-1.313.811l-.162.31v-20.3a7.377,7.377,0,0,0-7.377-7.377H9.377A7.377,7.377,0,0,0,2,44.787V83.148a7.377,7.377,0,0,0,7.377,7.377H90.525A1.475,1.475,0,0,0,92,89.049V80.2a1.475,1.475,0,0,0-1.475-1.475ZM21.18,25.607H19.7V22.656H21.18a7.377,7.377,0,1,0,0-14.754H19.7V4.951H21.18a10.328,10.328,0,0,1,0,20.656Zm16.23-8.852H34.37a12.339,12.339,0,0,0,0-2.951H37.41ZM34.459,83.148a4.44,4.44,0,0,1-4.426,4.426H9.377a4.44,4.44,0,0,1-4.426-4.426V78.721H34.459Zm0-7.377H4.951V49.213H34.459Zm0-29.508H4.951V44.787a4.44,4.44,0,0,1,4.426-4.426H30.033a4.44,4.44,0,0,1,4.426,4.426ZM80.2,7.9a7.377,7.377,0,1,1-7.377,7.377A7.377,7.377,0,0,1,80.2,7.9ZM40.361,19.7V10.852H70.887a10.157,10.157,0,0,0-1.018,4.426,10.274,10.274,0,0,0,.413,2.877l-.9,1.549Zm31.131,2.213.354-.59a10.306,10.306,0,0,0,7.761,4.249L65.089,50.733a10.356,10.356,0,0,0-7.672-4.426ZM49.213,56.59a7.377,7.377,0,1,1,7.377,7.377A7.377,7.377,0,0,1,49.213,56.59ZM37.41,71.7l2.39-4.78H73.38l5.9,11.8H37.41ZM89.049,87.574H35.89a7.265,7.265,0,0,0,1.52-4.426V81.672H89.049Z" transform="translate(0 0)" fill="#2e008b"/>
      <path id="Path_137" data-name="Path 137" d="M40.5,36A4.5,4.5,0,1,0,45,40.5,4.5,4.5,0,0,0,40.5,36Zm0,6A1.5,1.5,0,1,1,42,40.5,1.5,1.5,0,0,1,40.5,42Z" transform="translate(16.073 16.071)" fill="#2e008b"/>
      <path id="Path_138" data-name="Path 138" d="M56.5,17A4.5,4.5,0,1,0,52,12.5,4.5,4.5,0,0,0,56.5,17Zm0-6A1.5,1.5,0,1,1,55,12.5,1.5,1.5,0,0,1,56.5,11Z" transform="translate(23.5 3)" fill="#2e008b"/>
      <path id="Path_139" data-name="Path 139" d="M26,18h3v3H26Z" transform="translate(11.39 7.593)" fill="#2e008b"/>
      <path id="Path_140" data-name="Path 140" d="M30,18H42v3H30Z" transform="translate(13.208 7.593)" fill="#2e008b"/>
      <path id="Path_141" data-name="Path 141" d="M0,0H18V3H0Z" transform="matrix(0.5, -0.866, 0.866, 0.5, 72.704, 51.557)" fill="#2e008b"/>
      <path id="Path_142" data-name="Path 142" d="M0,0H3V3H0Z" transform="matrix(0.5, -0.866, 0.866, 0.5, 83.206, 33.567)" fill="#2e008b"/>
    </g>
  </g>
</svg>
