<svg xmlns="http://www.w3.org/2000/svg" xmlns:xlink="http://www.w3.org/1999/xlink" width="90" height="90" viewBox="0 0 90 90">
  <defs>
    <clipPath id="clip-Artboard_2">
      <rect width="90" height="90"/>
    </clipPath>
  </defs>
  <g id="Artboard_2" data-name="Artboard – 2" clip-path="url(#clip-Artboard_2)">
    <g id="circuit-board" transform="translate(-1 3)">
      <path id="Path_143" data-name="Path 143" d="M89.548,13.355h-8.71a1.452,1.452,0,0,0-1.452,1.452,4.355,4.355,0,1,1-8.71,0,1.452,1.452,0,0,0-1.452-1.452H41.645v-2.9A1.452,1.452,0,0,0,40.194,9H34.387a1.452,1.452,0,0,0-1.452,1.452v2.9h-2.9v-2.9A1.452,1.452,0,0,0,28.581,9H22.774a1.452,1.452,0,0,0-1.452,1.452v2.9h-2.9v-2.9A1.452,1.452,0,0,0,16.968,9H11.161A1.452,1.452,0,0,0,9.71,10.452v2.9H2.452A1.452,1.452,0,0,0,1,14.806V72.871a1.452,1.452,0,0,0,1.452,1.452H69.226a1.452,1.452,0,0,0,1.452-1.452,4.355,4.355,0,1,1,8.71,0,1.452,1.452,0,0,0,1.452,1.452h8.71A1.452,1.452,0,0,0,91,72.871V14.806A1.452,1.452,0,0,0,89.548,13.355ZM56.161,26.419a1.452,1.452,0,1,1-1.452-1.452A1.452,1.452,0,0,1,56.161,26.419ZM35.839,11.9h2.9V17.71h-2.9Zm-11.613,0h2.9V17.71h-2.9Zm-11.613,0h2.9V17.71h-2.9ZM88.1,71.419H82.145a7.258,7.258,0,0,0-14.226,0H3.9V16.258H9.71v2.9a1.452,1.452,0,0,0,1.452,1.452h5.806a1.452,1.452,0,0,0,1.452-1.452v-2.9h2.9v2.9a1.452,1.452,0,0,0,1.452,1.452h5.806a1.452,1.452,0,0,0,1.452-1.452v-2.9h2.9v2.9a1.452,1.452,0,0,0,1.452,1.452h5.806a1.452,1.452,0,0,0,1.452-1.452v-2.9H53.258v6.074a4.355,4.355,0,1,0,2.9,0V16.258h5.806V29.323a1.451,1.451,0,0,0,.425,1.026L72.565,40.522a4.284,4.284,0,0,0-.435,1.865,4.355,4.355,0,1,0,4.355-4.355,4.284,4.284,0,0,0-1.865.435l-9.748-9.746V16.258h3.048a7.258,7.258,0,0,0,14.226,0H88.1ZM76.484,40.935a1.452,1.452,0,1,1-1.452,1.452A1.452,1.452,0,0,1,76.484,40.935Z" transform="translate(0)" fill="#2e008b"/>
      <path id="Path_144" data-name="Path 144" d="M56.641,43.952a4.4,4.4,0,1,0,0-2.935H40.226V38.081H46.1V35.145H40.226V32.21H46.1V29.274H40.226V26.339a1.468,1.468,0,0,0-1.468-1.468H35.823V19H32.887v5.871H29.952V19H27.016v5.871H24.081V19H21.145v5.871H18.21V19H15.274v5.871H12.339a1.468,1.468,0,0,0-1.468,1.468v2.935H5V32.21h5.871v2.935H5v2.935h5.871v2.935H5v2.935h5.871v2.935H5v2.935h5.871v2.935a1.468,1.468,0,0,0,1.468,1.468h2.935V60.1H18.21V54.226h2.935V60.1h2.935V54.226h2.935V60.1h2.935V54.226h2.935V60.1h2.935V54.226h2.935a1.468,1.468,0,0,0,1.468-1.468V49.823H51.968v6.141a4.4,4.4,0,1,0,2.935,0V48.355a1.468,1.468,0,0,0-1.468-1.468H40.226V43.952Zm4.133-2.935a1.468,1.468,0,1,1-1.468,1.468A1.468,1.468,0,0,1,60.774,41.016ZM37.29,51.29H13.806V27.806H37.29ZM53.435,61.565A1.468,1.468,0,1,1,54.9,60.1,1.468,1.468,0,0,1,53.435,61.565Z" transform="translate(1.871 3.952)" fill="#2e008b"/>
      <path id="Path_145" data-name="Path 145" d="M14.468,44.613H29.145a1.468,1.468,0,0,0,1.468-1.468V28.468A1.468,1.468,0,0,0,29.145,27H14.468A1.468,1.468,0,0,0,13,28.468V43.145A1.468,1.468,0,0,0,14.468,44.613Zm1.468-14.677H27.677V41.677H15.935Z" transform="translate(5.373 8.023)" fill="#0473c0"/>
      <path id="Path_146" data-name="Path 146" d="M56.742,41.468v1.468H53.806V41.468A1.468,1.468,0,0,0,52.339,40H46.468A1.468,1.468,0,0,0,45,41.468v5.871a1.468,1.468,0,0,0,1.468,1.468h5.871a1.468,1.468,0,0,0,1.468-1.468V45.871h2.935v1.468a1.468,1.468,0,0,0,1.468,1.468h5.871a1.468,1.468,0,0,0,1.468-1.468V41.468A1.468,1.468,0,0,0,64.081,40H58.21A1.468,1.468,0,0,0,56.742,41.468Zm-5.871,4.4H47.935V42.935h2.935Zm8.806-2.935h2.935v2.935H59.677Z" transform="translate(19.581 13.923)" fill="#2e008b"/>
    </g>
  </g>
</svg>
