<svg xmlns="http://www.w3.org/2000/svg" width="90" height="90" viewBox="0 0 90 90">
  <g id="cloud-computing" transform="translate(0)">
    <g id="Group_5" data-name="Group 5" transform="translate(0 0)">
      <path id="Path_108" data-name="Path 108" d="M86.936,429.419a4.355,4.355,0,1,0,4.355,4.355A4.36,4.36,0,0,0,86.936,429.419Zm0,5.807a1.452,1.452,0,1,1,1.452-1.452A1.452,1.452,0,0,1,86.936,435.226Z" transform="translate(-68.065 -353.935)" fill="#2e008b"/>
      <path id="Path_109" data-name="Path 109" d="M367.71,429.419a4.355,4.355,0,1,0,4.355,4.355A4.36,4.36,0,0,0,367.71,429.419Zm0,5.807a1.452,1.452,0,1,1,1.452-1.452A1.452,1.452,0,0,1,367.71,435.226Z" transform="translate(-299.484 -353.935)" fill="#2e008b"/>
      <path id="Path_110" data-name="Path 110" d="M76.935,232.128h-.617L66.157,214.709H59.516v2.9H55.161a4.36,4.36,0,0,0-4.355,4.355v10.161H33.349a7.183,7.183,0,0,0,1.489-4.355,4.315,4.315,0,0,0-1-2.749l2.456-2.456,1.877,1.877,2.053-2.053-5.806-5.806-2.053,2.053,1.877,1.877L31.256,223.5a4.366,4.366,0,0,0-.772-.078H28.432l.726-8.71H22.384l-10.035,17.56A13.009,13.009,0,0,0,1.305,243.045l-1.214,7.28a6.82,6.82,0,0,0,6.722,7.933H8.826a10.148,10.148,0,0,0,20.09,0H58.181a10.148,10.148,0,0,0,20.09,0h4.471A7.266,7.266,0,0,0,90,251v-5.806A13.079,13.079,0,0,0,76.935,232.128Zm-1.613,17.419a10.126,10.126,0,0,0-14.194,0H58.665l.074-.074a22.287,22.287,0,0,0,6.512-14.442H76.935a10.122,10.122,0,0,1,7.1,2.9H78.387a2.906,2.906,0,0,0-2.9,2.9v1.452a4.36,4.36,0,0,0,4.355,4.355H87.1v2.9Zm-63.549,0H3.165l.483-2.9H13.962l4.355-8.71H7.074a10.134,10.134,0,0,1,7.12-2.9h7.58v12.041a10.108,10.108,0,0,0-10,2.475Zm-6.764-8.71h8.61l-1.452,2.9H4.133l.036-.219a10.221,10.221,0,0,1,.841-2.684Zm19.668-5.806H62.348a19.409,19.409,0,0,1-5.663,12.39l-2.125,2.127H25.968a10.241,10.241,0,0,0-1.29-1.068V235.032Zm3.361,17.419H59.059a10.068,10.068,0,0,0-.878,2.9H28.916a10.079,10.079,0,0,0-.878-2.9Zm51.8-8.71a1.452,1.452,0,0,1-1.452-1.452v-1.452H86.1a10.068,10.068,0,0,1,.878,2.9ZM62.419,217.612h2.07l8.467,14.516H62.419Zm-8.71,4.355a1.453,1.453,0,0,1,1.452-1.452h4.355v11.613H53.71Zm-21.774,5.806a4.36,4.36,0,0,1-4.355,4.355H23.789l1.6-4.814a1.451,1.451,0,0,1,1.378-.993h3.715a1.452,1.452,0,0,1,1.452,1.452Zm-7.868-10.161H26l-.5,6a4.34,4.34,0,0,0-2.864,2.783l-1.912,5.734H15.773ZM3.051,252.451H9.7a10.068,10.068,0,0,0-.878,2.9H6.814a3.908,3.908,0,0,1-3.763-2.9Zm15.82,11.613a7.258,7.258,0,1,1,7.258-7.258,7.266,7.266,0,0,1-7.258,7.258Zm49.355,0a7.258,7.258,0,1,1,7.258-7.258A7.266,7.266,0,0,1,68.226,264.064Zm14.516-8.71H78.271a10.066,10.066,0,0,0-.878-2.9H86.83A4.349,4.349,0,0,1,82.742,255.354Z" transform="translate(0 -176.967)" fill="#2e008b"/>
      <path id="Path_111" data-name="Path 111" d="M239.484,346.839h8.71v2.9h-8.71Z" transform="translate(-197.387 -285.871)" fill="#2e008b"/>
      <path id="Path_112" data-name="Path 112" d="M67.968,31.935h5.806v-2.9H67.968a7.256,7.256,0,1,1,.062-14.512h.009l1.4.055.244-1.209A13.065,13.065,0,0,1,93.955,9.714l.737,1.349L96,10.25a10.128,10.128,0,0,1,14.844,5.009l.678,1.777,1.536-1.121a7.185,7.185,0,0,1,4.268-1.4,7.258,7.258,0,1,1,0,14.516h-5.806v2.9h5.806a10.161,10.161,0,0,0,0-20.322,10.06,10.06,0,0,0-4.487,1.05,13.137,13.137,0,0,0-11.481-6.856,13,13,0,0,0-5.6,1.273,15.971,15.971,0,0,0-28.642,4.57,10.161,10.161,0,0,0,.859,20.286Z" transform="translate(-47.646 0)" fill="#2e008b"/>
      <path id="Path_113" data-name="Path 113" d="M239.936,78.678a4.355,4.355,0,1,0-4.355,4.355A4.36,4.36,0,0,0,239.936,78.678Zm-4.355,1.452a1.452,1.452,0,1,1,1.452-1.452A1.453,1.453,0,0,1,235.581,80.129Z" transform="translate(-190.581 -61.258)" fill="#0473c0"/>
      <path id="Path_114" data-name="Path 114" d="M157.356,103.452A4.355,4.355,0,1,0,153,107.807,4.36,4.36,0,0,0,157.356,103.452Zm-5.807,0A1.452,1.452,0,1,1,153,104.9a1.453,1.453,0,0,1-1.452-1.452Z" transform="translate(-122.517 -81.678)" fill="#0473c0"/>
      <path id="Path_115" data-name="Path 115" d="M322.517,103.452a4.355,4.355,0,1,0-4.355,4.355A4.36,4.36,0,0,0,322.517,103.452Zm-4.355,1.452a1.452,1.452,0,1,1,1.452-1.452A1.453,1.453,0,0,1,318.162,104.9Z" transform="translate(-258.646 -81.678)" fill="#0473c0"/>
      <path id="Path_116" data-name="Path 116" d="M247.742,140.387h2.9v13.065h-2.9Z" transform="translate(-204.194 -115.71)" fill="#0473c0"/>
      <path id="Path_117" data-name="Path 117" d="M283.677,170.968h8.71v-5.807h-2.9v2.9h-8.71v5.807h2.9Z" transform="translate(-231.419 -136.129)" fill="#0473c0"/>
      <path id="Path_118" data-name="Path 118" d="M176.774,173.871v-5.807h-8.71v-2.9h-2.9v5.807h8.71v2.9Z" transform="translate(-136.129 -136.129)" fill="#0473c0"/>
    </g>
  </g>
</svg>
