<svg id="smartphone" xmlns="http://www.w3.org/2000/svg" width="90" height="90" viewBox="0 0 90 90">
  <g id="Group_7" data-name="Group 7">
    <g id="Group_6" data-name="Group 6">
      <path id="Path_119" data-name="Path 119" d="M82.742,23.226H68.226a8.71,8.71,0,0,0-17.419,0h-18.9a14.516,14.516,0,1,0-23.171,0H7.258A7.266,7.266,0,0,0,0,30.484V74.032A7.266,7.266,0,0,0,7.258,81.29H23.226V87.1H17.419V90H72.581V87.1H66.774V81.29H82.742A7.266,7.266,0,0,0,90,74.032V30.484A7.266,7.266,0,0,0,82.742,23.226ZM59.516,17.419a5.806,5.806,0,1,1-5.806,5.806A5.812,5.812,0,0,1,59.516,17.419Zm-8.2,8.71a8.712,8.712,0,0,0,1.806,2.989L41.011,42.438a11.5,11.5,0,0,0-9.822-1.2l-4.909-13.5A14.5,14.5,0,0,0,29.032,26.1v.028ZM43.548,52.258a8.71,8.71,0,1,1-8.71-8.71A8.718,8.718,0,0,1,43.548,52.258ZM8.71,14.516A11.613,11.613,0,1,1,20.323,26.129,11.626,11.626,0,0,1,8.71,14.516ZM63.871,87.1H26.129V81.29H63.871ZM87.1,74.032a4.36,4.36,0,0,1-4.355,4.355H7.258A4.36,4.36,0,0,1,2.9,74.032V72.581H87.1Zm0-4.355H2.9V30.484a4.36,4.36,0,0,1,4.355-4.355h4.355V26.1a14.329,14.329,0,0,0,11.913,2.562L28.559,42.5a11.62,11.62,0,1,0,14.7,1.78l12.16-13.377a8.658,8.658,0,0,0,9.266-.685l8.669,7.586a5.727,5.727,0,0,0-.772,2.838,5.86,5.86,0,1,0,2.786-4.935l-8.66-7.577a8.712,8.712,0,0,0,1.012-2H82.742A4.36,4.36,0,0,1,87.1,30.484ZM75.484,40.645a2.9,2.9,0,1,1,2.9,2.9A2.906,2.906,0,0,1,75.484,40.645Z" fill="#2e008b"/>
      <rect id="Rectangle_320" data-name="Rectangle 320" width="3" height="3" transform="translate(81 64)" fill="#0473c0"/>
      <rect id="Rectangle_321" data-name="Rectangle 321" width="11" height="3" transform="translate(67 64)" fill="#0473c0"/>
      <rect id="Rectangle_322" data-name="Rectangle 322" width="17" height="3" transform="translate(67 58)" fill="#0473c0"/>
    </g>
  </g>
</svg>
