<svg xmlns="http://www.w3.org/2000/svg" xmlns:xlink="http://www.w3.org/1999/xlink" width="90" height="90" viewBox="0 0 90 90">
  <defs>
    <clipPath id="clip-Artboard_2">
      <rect width="90" height="90"/>
    </clipPath>
  </defs>
  <g id="Artboard_2" data-name="Artboard – 2" clip-path="url(#clip-Artboard_2)">
    <g id="ecosystem" transform="translate(-1 -1.333)">
      <path id="Path_120" data-name="Path 120" d="M34.757,25.513A8.757,8.757,0,1,0,26,16.757,8.766,8.766,0,0,0,34.757,25.513Zm0-14.595a5.838,5.838,0,1,1-5.838,5.838A5.844,5.844,0,0,1,34.757,10.919Z" transform="translate(11.243 3.063)" fill="#2e008e"/>
      <path id="Path_121" data-name="Path 121" d="M83.422,34.237A39.542,39.542,0,0,0,58.881,8.844L59.95,6.16l-4.377.875A7.5,7.5,0,0,1,48.147,4.2L46,1.333,43.853,4.2a7.5,7.5,0,0,1-7.426,2.838L32.05,6.16l1.068,2.683A39.069,39.069,0,0,0,8.656,33.968,13.14,13.14,0,0,0,1.109,44.139,13.005,13.005,0,0,0,7.037,56.857a2.855,2.855,0,0,1,1.221,2.42v2.54a5.8,5.8,0,0,0,5.118,5.737A39.664,39.664,0,0,0,24.226,78.426v9.52H6.807v2.9H85.193v-2.9H64.871V80.189A39.234,39.234,0,0,0,79.494,66.172h8.6v-2.9h-2.9v-2.9H91V34.237ZM88.1,45.849H82.29V37.14H88.1ZM73.58,57.462v-8.71h5.806v8.71Zm-8.71-8.71h5.806v8.71H64.871Zm0-2.9V37.14h5.806v8.71Zm8.71,0V37.14h5.806v8.71ZM36.435,9.98A10.424,10.424,0,0,0,46,6.165,10.423,10.423,0,0,0,55.566,9.98a10.3,10.3,0,0,0,3.741,9.726,10.367,10.367,0,0,0-3.94,9.536A10.308,10.308,0,0,0,46,33.273a10.427,10.427,0,0,0-8.135-3.912,10.075,10.075,0,0,0-1.43.1,10.3,10.3,0,0,0-3.758-9.74A10.3,10.3,0,0,0,36.435,9.98ZM8.6,54.411a10.158,10.158,0,0,1,4.272-18.656,10.836,10.836,0,0,1,1.2-.067,10.045,10.045,0,0,1,6.754,2.581,10.154,10.154,0,0,1-1.279,16.126,5.664,5.664,0,0,0-2.566,4.519H15.516V49.937a4.355,4.355,0,1,0-2.9,0v8.977H11.14a5.658,5.658,0,0,0-2.537-4.5Zm4.011-8.562A1.452,1.452,0,1,1,14.065,47.3,1.454,1.454,0,0,1,12.613,45.849ZM11.161,61.817h5.806a2.9,2.9,0,0,1-5.806,0Zm42.1,2.9v6.648l-5.806-1.161V87.946H41.645V67.3l-2.9.581V64.72ZM38.742,70.846v17.1H27.129V73.169Zm11.613,17.1v-14.2l11.613,2.323V87.946Zm14.516-11.1V73.691l-8.71-1.742V61.817h-2.9v-2.9h-2.9v2.9h-2.9V56.011h-2.9v5.806h-2.9v-2.9h-2.9v2.9h-2.9v6.648L24.226,70.788v4.078a36.775,36.775,0,0,1-7.682-7.82,5.8,5.8,0,0,0,3.327-5.229v-2.6a2.832,2.832,0,0,1,1.251-2.379,13.063,13.063,0,0,0-8.575-23.966c-.158.017-.312.051-.469.074A36.169,36.169,0,0,1,33.647,11.728a7.406,7.406,0,0,1-3.609,6.3l-2.826,1.7,2.828,1.7a7.424,7.424,0,0,1,3.085,9.164l-1.074,2.7,4.377-.875a7.5,7.5,0,0,1,7.426,2.838L46,38.108l2.282-3.041a7.432,7.432,0,0,1,7.162-2.886l4.079.665-.871-2.34a7.459,7.459,0,0,1,3.15-8.993l2.987-1.793-2.828-1.7a7.408,7.408,0,0,1-3.607-6.293A36.647,36.647,0,0,1,80.381,34.237H61.968V60.365h5.806v2.9h-2.9v2.9h11.2a36.337,36.337,0,0,1-11.2,10.671ZM82.29,63.269H70.677v-2.9H82.29Zm0-5.806v-8.71H88.1v8.71Z" fill="#2e008e"/>
      <path id="Path_122" data-name="Path 122" d="M61,61h2.919v2.919H61Z" transform="translate(27.081 26.93)" fill="#2e008e"/>
      <path id="Path_123" data-name="Path 123" d="M1,61H3.919v2.919H1Z" transform="translate(0 26.93)" fill="#2e008e"/>
      <path id="Path_124" data-name="Path 124" d="M37,57h5.838v2.919H37Z" transform="translate(16.238 25.092)" fill="#2e008e"/>
      <path id="Path_125" data-name="Path 125" d="M21,53h5.838v2.919H21Z" transform="translate(9.021 23.255)" fill="#2e008e"/>
      <path id="Path_126" data-name="Path 126" d="M21,57h5.838v2.919H21Z" transform="translate(9.021 25.092)" fill="#2e008e"/>
      <path id="Path_127" data-name="Path 127" d="M25,29H45.432v2.919H25Z" transform="translate(10.784 12.487)" fill="#0071c3"/>
      <path id="Path_128" data-name="Path 128" d="M37,33h2.919v2.919H37Z" transform="translate(16.249 14.293)" fill="#0071c3"/>
      <path id="Path_129" data-name="Path 129" d="M29,33h2.919v2.919H29Z" transform="translate(12.638 14.293)" fill="#0071c3"/>
      <path id="Path_130" data-name="Path 130" d="M25,33h2.919v2.919H25Z" transform="translate(10.832 14.293)" fill="#0071c3"/>
      <path id="Path_131" data-name="Path 131" d="M33,33h2.919v2.919H33Z" transform="translate(14.443 14.293)" fill="#0071c3"/>
    </g>
  </g>
</svg>
